<svg width="88" height="18" viewBox="0 0 88 18" fill="none" xmlns="http://www.w3.org/2000/svg">
<path d="M18 9C18 13.9706 13.9706 18 9 18C4.02944 18 0 13.9706 0 9C0 4.02944 4.02944 0 9 0C13.9706 0 18 4.02944 18 9Z" fill="#007C98"/>
<g clip-path="url(#clip0_1113_2092)">
<path d="M10.25 10.1667V10.25C11.3372 10.4028 12.234 10.7188 12.9404 11.1979C13.6468 11.6771 14 12.2222 14 12.8333C14 13.0139 13.9089 13.1701 13.7266 13.3021C13.5443 13.434 13.3229 13.5 13.0625 13.5C12.8021 13.5 12.5807 13.434 12.3984 13.3021C12.2161 13.1701 12.125 13.0139 12.125 12.8333C12.125 12.5903 11.985 12.3663 11.7051 12.1615C11.4251 11.9566 11.0459 11.7951 10.5674 11.6771C10.0889 11.559 9.56641 11.5 9 11.5C8.43359 11.5 7.91113 11.559 7.43262 11.6771C6.9541 11.7951 6.57487 11.9566 6.29492 12.1615C6.01497 12.3663 5.875 12.5903 5.875 12.8333C5.875 13.0139 5.78385 13.1701 5.60156 13.3021C5.41927 13.434 5.19792 13.5 4.9375 13.5C4.67708 13.5 4.45573 13.434 4.27344 13.3021C4.09115 13.1701 4 13.0139 4 12.8333C4 12.2153 4.35319 11.6684 5.05957 11.1927C5.76595 10.717 6.66276 10.4028 7.75 10.25V10.1667C7.75 9.98611 7.81185 9.82986 7.93555 9.69792C8.05924 9.56597 8.20573 9.5 8.375 9.5V8.16667C8.375 7.98611 8.43685 7.82986 8.56055 7.69792C8.68424 7.56597 8.83073 7.5 9 7.5C9.34505 7.5 9.63965 7.36979 9.88379 7.10938C10.1279 6.84896 10.25 6.53472 10.25 6.16667C10.25 5.79861 10.1279 5.48438 9.88379 5.22396C9.63965 4.96354 9.34505 4.83333 9 4.83333C8.65495 4.83333 8.36035 4.96354 8.11621 5.22396C7.87207 5.48438 7.75 5.79861 7.75 6.16667C7.75 6.34722 7.68978 6.50347 7.56934 6.63542C7.44889 6.76736 7.30241 6.83333 7.12988 6.83333C6.95736 6.83333 6.80924 6.76736 6.68555 6.63542C6.56185 6.50347 6.5 6.34722 6.5 6.16667C6.5 5.43056 6.74414 4.80208 7.23242 4.28125C7.7207 3.76042 8.3099 3.5 9 3.5C9.6901 3.5 10.2793 3.76042 10.7676 4.28125C11.2559 4.80208 11.5 5.43056 11.5 6.16667C11.5 6.77778 11.3242 7.32292 10.9727 7.80208C10.6211 8.28125 10.1719 8.59722 9.625 8.75V9.5C9.80078 9.5 9.94889 9.56597 10.0693 9.69792C10.1898 9.82986 10.25 9.98611 10.25 10.1667Z" fill="#FFC835"/>
</g>
<path d="M27.18 3.10001C27.94 3.10001 28.6267 3.20001 29.24 3.40001C29.8667 3.58668 30.3933 3.83334 30.82 4.14001C31.0867 4.32668 31.2933 4.53334 31.44 4.76001C31.6 4.98668 31.68 5.28001 31.68 5.64001V12.64C31.68 13.3467 31.5467 13.9533 31.28 14.46C31.0133 14.98 30.6467 15.4067 30.18 15.74C29.7267 16.0867 29.1867 16.34 28.56 16.5C27.9467 16.66 27.2867 16.74 26.58 16.74C25.3667 16.74 24.4133 16.5733 23.72 16.24C23.0267 15.92 22.68 15.3933 22.68 14.66C22.68 14.3533 22.74 14.08 22.86 13.84C22.9933 13.6133 23.14 13.44 23.3 13.32C23.6867 13.5333 24.12 13.7133 24.6 13.86C25.0933 14.0067 25.6 14.08 26.12 14.08C26.84 14.08 27.4133 13.96 27.84 13.72C28.2667 13.48 28.48 13.0933 28.48 12.56V12.24C27.9333 12.48 27.2667 12.6 26.48 12.6C25.88 12.6 25.3067 12.5133 24.76 12.34C24.2267 12.1533 23.7533 11.8733 23.34 11.5C22.94 11.1133 22.6133 10.62 22.36 10.02C22.12 9.42001 22 8.70668 22 7.88001C22 7.06668 22.1267 6.36001 22.38 5.76001C22.6467 5.16001 23.0067 4.66668 23.46 4.28001C23.9267 3.88001 24.4733 3.58668 25.1 3.40001C25.74 3.20001 26.4333 3.10001 27.18 3.10001ZM28.42 6.00001C28.3267 5.94668 28.1867 5.89334 28 5.84001C27.8267 5.78668 27.6067 5.76001 27.34 5.76001C26.6867 5.76001 26.1933 5.94668 25.86 6.32001C25.54 6.68001 25.38 7.20001 25.38 7.88001C25.38 8.65334 25.54 9.21334 25.86 9.56001C26.1933 9.89334 26.6133 10.06 27.12 10.06C27.6667 10.06 28.1 9.93334 28.42 9.68001V6.00001Z" fill="#606060"/>
<path d="M43.8477 8.26001C43.8477 9.08668 43.721 9.82668 43.4677 10.48C43.2143 11.12 42.8543 11.66 42.3877 12.1C41.9343 12.54 41.3877 12.8733 40.7477 13.1C40.1077 13.3267 39.3943 13.44 38.6077 13.44C37.821 13.44 37.1077 13.32 36.4677 13.08C35.8277 12.84 35.2743 12.5 34.8077 12.06C34.3543 11.6067 34.001 11.06 33.7477 10.42C33.4943 9.78001 33.3677 9.06001 33.3677 8.26001C33.3677 7.47334 33.4943 6.76001 33.7477 6.12001C34.001 5.48001 34.3543 4.94001 34.8077 4.50001C35.2743 4.04668 35.8277 3.70001 36.4677 3.46001C37.1077 3.22001 37.821 3.10001 38.6077 3.10001C39.3943 3.10001 40.1077 3.22668 40.7477 3.48001C41.3877 3.72001 41.9343 4.06668 42.3877 4.52001C42.8543 4.96001 43.2143 5.50001 43.4677 6.14001C43.721 6.78001 43.8477 7.48668 43.8477 8.26001ZM36.8477 8.26001C36.8477 9.07334 37.001 9.70001 37.3077 10.14C37.6277 10.5667 38.0677 10.78 38.6277 10.78C39.1877 10.78 39.6143 10.56 39.9077 10.12C40.2143 9.68001 40.3677 9.06001 40.3677 8.26001C40.3677 7.46001 40.2143 6.84668 39.9077 6.42001C39.601 5.98001 39.1677 5.76001 38.6077 5.76001C38.0477 5.76001 37.6143 5.98001 37.3077 6.42001C37.001 6.84668 36.8477 7.46001 36.8477 8.26001Z" fill="#606060"/>
<path d="M50.1664 3.10001C50.7131 3.10001 51.2464 3.18001 51.7664 3.34001C52.2997 3.48668 52.7597 3.71334 53.1464 4.02001C53.5464 3.75334 53.9931 3.53334 54.4864 3.36001C54.9931 3.18668 55.5997 3.10001 56.3064 3.10001C56.8131 3.10001 57.3064 3.16668 57.7864 3.30001C58.2797 3.43334 58.7131 3.64668 59.0864 3.94001C59.4731 4.22001 59.7797 4.60001 60.0064 5.08001C60.2331 5.54668 60.3464 6.12001 60.3464 6.80001V13.1C60.2131 13.14 59.9997 13.18 59.7064 13.22C59.4264 13.26 59.1331 13.28 58.8264 13.28C58.5331 13.28 58.2664 13.26 58.0264 13.22C57.7997 13.18 57.6064 13.1 57.4464 12.98C57.2864 12.86 57.1597 12.7 57.0664 12.5C56.9864 12.2867 56.9464 12.0133 56.9464 11.68V6.90001C56.9464 6.50001 56.8331 6.21334 56.6064 6.04001C56.3797 5.85334 56.0731 5.76001 55.6864 5.76001C55.4997 5.76001 55.2997 5.80668 55.0864 5.90001C54.8731 5.98001 54.7131 6.06668 54.6064 6.16001C54.6197 6.21334 54.6264 6.26668 54.6264 6.32001C54.6264 6.36001 54.6264 6.40001 54.6264 6.44001V13.1C54.4797 13.14 54.2597 13.18 53.9664 13.22C53.6864 13.26 53.3997 13.28 53.1064 13.28C52.8131 13.28 52.5464 13.26 52.3064 13.22C52.0797 13.18 51.8864 13.1 51.7264 12.98C51.5664 12.86 51.4397 12.7 51.3464 12.5C51.2664 12.2867 51.2264 12.0133 51.2264 11.68V6.90001C51.2264 6.50001 51.0997 6.21334 50.8464 6.04001C50.6064 5.85334 50.3131 5.76001 49.9664 5.76001C49.7264 5.76001 49.5197 5.80001 49.3464 5.88001C49.1731 5.94668 49.0264 6.01334 48.9064 6.08001V13.1C48.7731 13.14 48.5597 13.18 48.2664 13.22C47.9864 13.26 47.6931 13.28 47.3864 13.28C47.0931 13.28 46.8264 13.26 46.5864 13.22C46.3597 13.18 46.1664 13.1 46.0064 12.98C45.8464 12.86 45.7197 12.7 45.6264 12.5C45.5464 12.2867 45.5064 12.0133 45.5064 11.68V5.64001C45.5064 5.28001 45.5797 4.99334 45.7264 4.78001C45.8864 4.56668 46.0997 4.36668 46.3664 4.18001C46.8197 3.86001 47.3797 3.60001 48.0464 3.40001C48.7264 3.20001 49.4331 3.10001 50.1664 3.10001Z" fill="#606060"/>
<path d="M66.5805 10.96C66.8071 10.96 67.0538 10.94 67.3205 10.9C67.6005 10.8467 67.8071 10.78 67.9405 10.7V9.10001L66.5005 9.22001C66.1271 9.24668 65.8205 9.32668 65.5805 9.46001C65.3405 9.59334 65.2205 9.79334 65.2205 10.06C65.2205 10.3267 65.3205 10.5467 65.5205 10.72C65.7338 10.88 66.0871 10.96 66.5805 10.96ZM66.4205 3.10001C67.1405 3.10001 67.7938 3.17334 68.3805 3.32001C68.9805 3.46668 69.4871 3.69334 69.9005 4.00001C70.3271 4.29334 70.6538 4.67334 70.8805 5.14001C71.1071 5.59334 71.2205 6.13334 71.2205 6.76001V11.24C71.2205 11.5867 71.1205 11.8733 70.9205 12.1C70.7338 12.3133 70.5071 12.5 70.2405 12.66C69.3738 13.18 68.1538 13.44 66.5805 13.44C65.8738 13.44 65.2338 13.3733 64.6605 13.24C64.1005 13.1067 63.6138 12.9067 63.2005 12.64C62.8005 12.3733 62.4871 12.0333 62.2605 11.62C62.0471 11.2067 61.9405 10.7267 61.9405 10.18C61.9405 9.26001 62.2138 8.55334 62.7605 8.06001C63.3071 7.56668 64.1538 7.26001 65.3005 7.14001L67.9205 6.86001V6.72001C67.9205 6.33334 67.7471 6.06001 67.4005 5.90001C67.0671 5.72668 66.5805 5.64001 65.9405 5.64001C65.4338 5.64001 64.9405 5.69334 64.4605 5.80001C63.9805 5.90668 63.5471 6.04001 63.1605 6.20001C62.9871 6.08001 62.8405 5.90001 62.7205 5.66001C62.6005 5.40668 62.5405 5.14668 62.5405 4.88001C62.5405 4.53334 62.6205 4.26001 62.7805 4.06001C62.9538 3.84668 63.2138 3.66668 63.5605 3.52001C63.9471 3.37334 64.4005 3.26668 64.9205 3.20001C65.4538 3.13334 65.9538 3.10001 66.4205 3.10001Z" fill="#606060"/>
<path d="M76.6994 13.1C76.566 13.14 76.3527 13.18 76.0594 13.22C75.7794 13.26 75.486 13.28 75.1794 13.28C74.886 13.28 74.6194 13.26 74.3794 13.22C74.1527 13.18 73.9594 13.1 73.7994 12.98C73.6394 12.86 73.5127 12.7 73.4194 12.5C73.3394 12.2867 73.2994 12.0133 73.2994 11.68V5.68001C73.2994 5.37334 73.3527 5.11334 73.4594 4.90001C73.5794 4.67334 73.746 4.47334 73.9594 4.30001C74.1727 4.12668 74.4327 3.97334 74.7394 3.84001C75.0594 3.69334 75.3994 3.56668 75.7594 3.46001C76.1194 3.35334 76.4927 3.27334 76.8794 3.22001C77.266 3.15334 77.6527 3.12001 78.0394 3.12001C78.6794 3.12001 79.186 3.24668 79.5594 3.50001C79.9327 3.74001 80.1194 4.14001 80.1194 4.70001C80.1194 4.88668 80.0927 5.07334 80.0394 5.26001C79.986 5.43334 79.9194 5.59334 79.8394 5.74001C79.5594 5.74001 79.2727 5.75334 78.9794 5.78001C78.686 5.80668 78.3994 5.84668 78.1194 5.90001C77.8394 5.95334 77.5727 6.01334 77.3194 6.08001C77.0794 6.13334 76.8727 6.20001 76.6994 6.28001V13.1Z" fill="#606060"/>
<path d="M84.922 9.78001C84.922 10.1267 85.0287 10.3733 85.242 10.52C85.4687 10.6667 85.782 10.74 86.182 10.74C86.382 10.74 86.5887 10.7267 86.802 10.7C87.0154 10.66 87.202 10.6133 87.362 10.56C87.482 10.7067 87.582 10.8733 87.662 11.06C87.7554 11.2333 87.802 11.4467 87.802 11.7C87.802 12.2067 87.6087 12.62 87.222 12.94C86.8487 13.26 86.182 13.42 85.222 13.42C84.0487 13.42 83.142 13.1533 82.502 12.62C81.8754 12.0867 81.562 11.22 81.562 10.02V1.46001C81.7087 1.42001 81.9154 1.38001 82.182 1.34001C82.462 1.28668 82.7554 1.26001 83.062 1.26001C83.6487 1.26001 84.102 1.36668 84.422 1.58001C84.7554 1.78001 84.922 2.21334 84.922 2.88001V4.16001H87.542C87.622 4.30668 87.6954 4.49334 87.762 4.72001C87.842 4.93334 87.882 5.17334 87.882 5.44001C87.882 5.90668 87.7754 6.24668 87.562 6.46001C87.362 6.66001 87.0887 6.76001 86.742 6.76001H84.922V9.78001Z" fill="#606060"/>
<defs>
<clipPath id="clip0_1113_2092">
<rect width="10" height="10" fill="white" transform="translate(4 3.5)"/>
</clipPath>
</defs>
</svg>
