<svg width="115" height="34" viewBox="0 0 115 34" fill="none" xmlns="http://www.w3.org/2000/svg">
<circle cx="17" cy="17" r="17" fill="#007C98"/>
<g clip-path="url(#clip0_340_1436)">
<path d="M18.9732 19.631V19.7625C20.6895 20.0037 22.1052 20.5025 23.2203 21.2589C24.3353 22.0153 24.8929 22.8758 24.8929 23.8405C24.8929 24.1255 24.749 24.3722 24.4612 24.5805C24.1735 24.7887 23.824 24.8929 23.413 24.8929C23.0019 24.8929 22.6524 24.7887 22.3647 24.5805C22.0769 24.3722 21.933 24.1255 21.933 23.8405C21.933 23.4568 21.7121 23.1033 21.2702 22.7799C20.8282 22.4565 20.2296 22.2016 19.4742 22.0153C18.7189 21.8289 17.8941 21.7357 17 21.7357C16.1059 21.7357 15.2811 21.8289 14.5258 22.0153C13.7704 22.2016 13.1718 22.4565 12.7298 22.7799C12.2879 23.1033 12.067 23.4568 12.067 23.8405C12.067 24.1255 11.9231 24.3722 11.6353 24.5805C11.3476 24.7887 10.9981 24.8929 10.5871 24.8929C10.176 24.8929 9.82655 24.7887 9.53879 24.5805C9.25103 24.3722 9.10715 24.1255 9.10715 23.8405C9.10715 22.8649 9.66468 22.0016 10.7798 21.2507C11.8948 20.4997 13.3105 20.0037 15.0268 19.7625V19.631C15.0268 19.346 15.1244 19.0993 15.3197 18.891C15.515 18.6827 15.7462 18.5786 16.0134 18.5786V16.4738C16.0134 16.1888 16.111 15.9422 16.3063 15.7339C16.5016 15.5256 16.7328 15.4215 17 15.4215C17.5447 15.4215 18.0097 15.2159 18.3951 14.8048C18.7805 14.3937 18.9732 13.8977 18.9732 13.3167C18.9732 12.7357 18.7805 12.2397 18.3951 11.8286C18.0097 11.4175 17.5447 11.2119 17 11.2119C16.4553 11.2119 15.9903 11.4175 15.6049 11.8286C15.2195 12.2397 15.0268 12.7357 15.0268 13.3167C15.0268 13.6017 14.9317 13.8484 14.7416 14.0567C14.5515 14.2649 14.3202 14.3691 14.0479 14.3691C13.7755 14.3691 13.5417 14.2649 13.3465 14.0567C13.1512 13.8484 13.0536 13.6017 13.0536 13.3167C13.0536 12.1547 13.439 11.1626 14.2098 10.3404C14.9805 9.51826 15.9106 9.10718 17 9.10718C18.0894 9.10718 19.0195 9.51826 19.7903 10.3404C20.561 11.1626 20.9464 12.1547 20.9464 13.3167C20.9464 14.2814 20.6689 15.1419 20.114 15.8983C19.559 16.6547 18.8499 17.1535 17.9866 17.3947V18.5786C18.2641 18.5786 18.4979 18.6827 18.688 18.891C18.8782 19.0993 18.9732 19.346 18.9732 19.631Z" fill="#FFC835"/>
</g>
<path d="M46.78 12.48C47.54 12.48 48.2267 12.58 48.84 12.78C49.4667 12.9667 49.9933 13.2133 50.42 13.52C50.6867 13.7067 50.8933 13.9133 51.04 14.14C51.2 14.3667 51.28 14.66 51.28 15.02V22.02C51.28 22.7267 51.1467 23.3333 50.88 23.84C50.6133 24.36 50.2467 24.7867 49.78 25.12C49.3267 25.4667 48.7867 25.72 48.16 25.88C47.5467 26.04 46.8867 26.12 46.18 26.12C44.9667 26.12 44.0133 25.9533 43.32 25.62C42.6267 25.3 42.28 24.7733 42.28 24.04C42.28 23.7333 42.34 23.46 42.46 23.22C42.5933 22.9933 42.74 22.82 42.9 22.7C43.2867 22.9133 43.72 23.0933 44.2 23.24C44.6933 23.3867 45.2 23.46 45.72 23.46C46.44 23.46 47.0133 23.34 47.44 23.1C47.8667 22.86 48.08 22.4733 48.08 21.94V21.62C47.5333 21.86 46.8667 21.98 46.08 21.98C45.48 21.98 44.9067 21.8933 44.36 21.72C43.8267 21.5333 43.3533 21.2533 42.94 20.88C42.54 20.4933 42.2133 20 41.96 19.4C41.72 18.8 41.6 18.0867 41.6 17.26C41.6 16.4467 41.7267 15.74 41.98 15.14C42.2467 14.54 42.6067 14.0467 43.06 13.66C43.5267 13.26 44.0733 12.9667 44.7 12.78C45.34 12.58 46.0333 12.48 46.78 12.48ZM48.02 15.38C47.9267 15.3267 47.7867 15.2733 47.6 15.22C47.4267 15.1667 47.2067 15.14 46.94 15.14C46.2867 15.14 45.7933 15.3267 45.46 15.7C45.14 16.06 44.98 16.58 44.98 17.26C44.98 18.0333 45.14 18.5933 45.46 18.94C45.7933 19.2733 46.2133 19.44 46.72 19.44C47.2667 19.44 47.7 19.3133 48.02 19.06V15.38ZM63.4477 17.64C63.4477 18.4667 63.321 19.2067 63.0677 19.86C62.8143 20.5 62.4543 21.04 61.9877 21.48C61.5343 21.92 60.9877 22.2533 60.3477 22.48C59.7077 22.7067 58.9943 22.82 58.2077 22.82C57.421 22.82 56.7077 22.7 56.0677 22.46C55.4277 22.22 54.8743 21.88 54.4077 21.44C53.9543 20.9867 53.601 20.44 53.3477 19.8C53.0943 19.16 52.9677 18.44 52.9677 17.64C52.9677 16.8533 53.0943 16.14 53.3477 15.5C53.601 14.86 53.9543 14.32 54.4077 13.88C54.8743 13.4267 55.4277 13.08 56.0677 12.84C56.7077 12.6 57.421 12.48 58.2077 12.48C58.9943 12.48 59.7077 12.6067 60.3477 12.86C60.9877 13.1 61.5343 13.4467 61.9877 13.9C62.4543 14.34 62.8143 14.88 63.0677 15.52C63.321 16.16 63.4477 16.8667 63.4477 17.64ZM56.4477 17.64C56.4477 18.4533 56.601 19.08 56.9077 19.52C57.2277 19.9467 57.6677 20.16 58.2277 20.16C58.7877 20.16 59.2143 19.94 59.5077 19.5C59.8143 19.06 59.9677 18.44 59.9677 17.64C59.9677 16.84 59.8143 16.2267 59.5077 15.8C59.201 15.36 58.7677 15.14 58.2077 15.14C57.6477 15.14 57.2143 15.36 56.9077 15.8C56.601 16.2267 56.4477 16.84 56.4477 17.64ZM69.7664 12.48C70.3131 12.48 70.8464 12.56 71.3664 12.72C71.8997 12.8667 72.3597 13.0933 72.7464 13.4C73.1464 13.1333 73.5931 12.9133 74.0864 12.74C74.5931 12.5667 75.1997 12.48 75.9064 12.48C76.4131 12.48 76.9064 12.5467 77.3864 12.68C77.8797 12.8133 78.3131 13.0267 78.6864 13.32C79.0731 13.6 79.3797 13.98 79.6064 14.46C79.8331 14.9267 79.9464 15.5 79.9464 16.18V22.48C79.8131 22.52 79.5997 22.56 79.3064 22.6C79.0264 22.64 78.7331 22.66 78.4264 22.66C78.1331 22.66 77.8664 22.64 77.6264 22.6C77.3997 22.56 77.2064 22.48 77.0464 22.36C76.8864 22.24 76.7597 22.08 76.6664 21.88C76.5864 21.6667 76.5464 21.3933 76.5464 21.06V16.28C76.5464 15.88 76.4331 15.5933 76.2064 15.42C75.9797 15.2333 75.6731 15.14 75.2864 15.14C75.0997 15.14 74.8997 15.1867 74.6864 15.28C74.4731 15.36 74.3131 15.4467 74.2064 15.54C74.2197 15.5933 74.2264 15.6467 74.2264 15.7C74.2264 15.74 74.2264 15.78 74.2264 15.82V22.48C74.0797 22.52 73.8597 22.56 73.5664 22.6C73.2864 22.64 72.9997 22.66 72.7064 22.66C72.4131 22.66 72.1464 22.64 71.9064 22.6C71.6797 22.56 71.4864 22.48 71.3264 22.36C71.1664 22.24 71.0397 22.08 70.9464 21.88C70.8664 21.6667 70.8264 21.3933 70.8264 21.06V16.28C70.8264 15.88 70.6997 15.5933 70.4464 15.42C70.2064 15.2333 69.9131 15.14 69.5664 15.14C69.3264 15.14 69.1197 15.18 68.9464 15.26C68.7731 15.3267 68.6264 15.3933 68.5064 15.46V22.48C68.3731 22.52 68.1597 22.56 67.8664 22.6C67.5864 22.64 67.2931 22.66 66.9864 22.66C66.6931 22.66 66.4264 22.64 66.1864 22.6C65.9597 22.56 65.7664 22.48 65.6064 22.36C65.4464 22.24 65.3197 22.08 65.2264 21.88C65.1464 21.6667 65.1064 21.3933 65.1064 21.06V15.02C65.1064 14.66 65.1797 14.3733 65.3264 14.16C65.4864 13.9467 65.6997 13.7467 65.9664 13.56C66.4197 13.24 66.9797 12.98 67.6464 12.78C68.3264 12.58 69.0331 12.48 69.7664 12.48ZM86.1805 20.34C86.4071 20.34 86.6538 20.32 86.9205 20.28C87.2005 20.2267 87.4071 20.16 87.5405 20.08V18.48L86.1005 18.6C85.7271 18.6267 85.4205 18.7067 85.1805 18.84C84.9405 18.9733 84.8205 19.1733 84.8205 19.44C84.8205 19.7067 84.9205 19.9267 85.1205 20.1C85.3338 20.26 85.6871 20.34 86.1805 20.34ZM86.0205 12.48C86.7405 12.48 87.3938 12.5533 87.9805 12.7C88.5805 12.8467 89.0871 13.0733 89.5005 13.38C89.9271 13.6733 90.2538 14.0533 90.4805 14.52C90.7071 14.9733 90.8205 15.5133 90.8205 16.14V20.62C90.8205 20.9667 90.7205 21.2533 90.5205 21.48C90.3338 21.6933 90.1071 21.88 89.8405 22.04C88.9738 22.56 87.7538 22.82 86.1805 22.82C85.4738 22.82 84.8338 22.7533 84.2605 22.62C83.7005 22.4867 83.2138 22.2867 82.8005 22.02C82.4005 21.7533 82.0871 21.4133 81.8605 21C81.6471 20.5867 81.5405 20.1067 81.5405 19.56C81.5405 18.64 81.8138 17.9333 82.3605 17.44C82.9071 16.9467 83.7538 16.64 84.9005 16.52L87.5205 16.24V16.1C87.5205 15.7133 87.3471 15.44 87.0005 15.28C86.6671 15.1067 86.1805 15.02 85.5405 15.02C85.0338 15.02 84.5405 15.0733 84.0605 15.18C83.5805 15.2867 83.1471 15.42 82.7605 15.58C82.5871 15.46 82.4405 15.28 82.3205 15.04C82.2005 14.7867 82.1405 14.5267 82.1405 14.26C82.1405 13.9133 82.2205 13.64 82.3805 13.44C82.5538 13.2267 82.8138 13.0467 83.1605 12.9C83.5471 12.7533 84.0005 12.6467 84.5205 12.58C85.0538 12.5133 85.5538 12.48 86.0205 12.48ZM96.2994 22.48C96.166 22.52 95.9527 22.56 95.6594 22.6C95.3794 22.64 95.086 22.66 94.7794 22.66C94.486 22.66 94.2194 22.64 93.9794 22.6C93.7527 22.56 93.5594 22.48 93.3994 22.36C93.2394 22.24 93.1127 22.08 93.0194 21.88C92.9394 21.6667 92.8994 21.3933 92.8994 21.06V15.06C92.8994 14.7533 92.9527 14.4933 93.0594 14.28C93.1794 14.0533 93.346 13.8533 93.5594 13.68C93.7727 13.5067 94.0327 13.3533 94.3394 13.22C94.6594 13.0733 94.9994 12.9467 95.3594 12.84C95.7194 12.7333 96.0927 12.6533 96.4794 12.6C96.866 12.5333 97.2527 12.5 97.6394 12.5C98.2794 12.5 98.786 12.6267 99.1594 12.88C99.5327 13.12 99.7194 13.52 99.7194 14.08C99.7194 14.2667 99.6927 14.4533 99.6394 14.64C99.586 14.8133 99.5194 14.9733 99.4394 15.12C99.1594 15.12 98.8727 15.1333 98.5794 15.16C98.286 15.1867 97.9994 15.2267 97.7194 15.28C97.4394 15.3333 97.1727 15.3933 96.9194 15.46C96.6794 15.5133 96.4727 15.58 96.2994 15.66V22.48ZM104.522 19.16C104.522 19.5067 104.629 19.7533 104.842 19.9C105.069 20.0467 105.382 20.12 105.782 20.12C105.982 20.12 106.189 20.1067 106.402 20.08C106.615 20.04 106.802 19.9933 106.962 19.94C107.082 20.0867 107.182 20.2533 107.262 20.44C107.355 20.6133 107.402 20.8267 107.402 21.08C107.402 21.5867 107.209 22 106.822 22.32C106.449 22.64 105.782 22.8 104.822 22.8C103.649 22.8 102.742 22.5333 102.102 22C101.475 21.4667 101.162 20.6 101.162 19.4V10.84C101.309 10.8 101.515 10.76 101.782 10.72C102.062 10.6667 102.355 10.64 102.662 10.64C103.249 10.64 103.702 10.7467 104.022 10.96C104.355 11.16 104.522 11.5933 104.522 12.26V13.54H107.142C107.222 13.6867 107.295 13.8733 107.362 14.1C107.442 14.3133 107.482 14.5533 107.482 14.82C107.482 15.2867 107.375 15.6267 107.162 15.84C106.962 16.04 106.689 16.14 106.342 16.14H104.522V19.16Z" fill="#606060"/>
<path d="M48.84 12.78L48.53 13.7307L48.5422 13.7347L48.5545 13.7384L48.84 12.78ZM50.42 13.52L49.8363 14.3321L49.8465 14.3392L50.42 13.52ZM51.04 14.14L50.2004 14.6833L50.2114 14.7002L50.223 14.7167L51.04 14.14ZM50.88 23.84L49.995 23.3742L49.9902 23.3837L50.88 23.84ZM49.78 25.12L49.1988 24.3063L49.1855 24.3157L49.1726 24.3256L49.78 25.12ZM48.16 25.88L47.9126 24.9111L47.9076 24.9124L48.16 25.88ZM43.32 25.62L43.7533 24.7187L43.7462 24.7153L43.7391 24.712L43.32 25.62ZM42.46 23.22L41.5981 22.713L41.5808 22.7423L41.5656 22.7728L42.46 23.22ZM42.9 22.7L43.3831 21.8244L42.8171 21.5122L42.3 21.9L42.9 22.7ZM44.2 23.24L43.9078 24.1964L43.915 24.1985L44.2 23.24ZM47.44 23.1L47.9303 23.9716H47.9303L47.44 23.1ZM48.08 21.62H49.08V20.0888L47.678 20.7044L48.08 21.62ZM44.36 21.72L44.0296 22.6639L44.0436 22.6688L44.0578 22.6732L44.36 21.72ZM42.94 20.88L42.245 21.599L42.2572 21.6108L42.2697 21.6221L42.94 20.88ZM41.96 19.4L41.0315 19.7714L41.0351 19.7802L41.0388 19.789L41.96 19.4ZM41.98 15.14L41.0662 14.7339L41.0624 14.7424L41.0588 14.751L41.98 15.14ZM43.06 13.66L43.7089 14.4208L43.7108 14.4193L43.06 13.66ZM44.7 12.78L44.9855 13.7385L44.9983 13.7345L44.7 12.78ZM48.02 15.38H49.02V14.7997L48.5161 14.5118L48.02 15.38ZM47.6 15.22L47.3059 16.1758L47.3156 16.1787L47.3253 16.1815L47.6 15.22ZM45.46 15.7L44.7141 15.034L44.7126 15.0356L45.46 15.7ZM45.46 18.94L44.7252 19.6183L44.7388 19.633L44.7529 19.6471L45.46 18.94ZM48.02 19.06L48.6407 19.844L49.02 19.5438V19.06H48.02ZM46.78 13.48C47.453 13.48 48.0327 13.5686 48.53 13.7307L49.15 11.8293C48.4206 11.5914 47.627 11.48 46.78 11.48V13.48ZM48.5545 13.7384C49.0994 13.9007 49.5193 14.1041 49.8364 14.332L51.0036 12.708C50.4674 12.3226 49.8339 12.0326 49.1255 11.8216L48.5545 13.7384ZM49.8465 14.3392C50.0287 14.4668 50.1366 14.5847 50.2004 14.6833L51.8796 13.5967C51.65 13.242 51.3446 12.9466 50.9935 12.7008L49.8465 14.3392ZM50.223 14.7167C50.233 14.7307 50.28 14.8053 50.28 15.02H52.28C52.28 14.5147 52.167 14.0026 51.857 13.5633L50.223 14.7167ZM50.28 15.02V22.02H52.28V15.02H50.28ZM50.28 22.02C50.28 22.6018 50.1705 23.041 49.9951 23.3743L51.7649 24.3057C52.1229 23.6256 52.28 22.8515 52.28 22.02H50.28ZM49.9902 23.3837C49.7949 23.7644 49.533 24.0675 49.1988 24.3063L50.3612 25.9337C50.9604 25.5058 51.4317 24.9556 51.7698 24.2963L49.9902 23.3837ZM49.1726 24.3256C48.8396 24.5802 48.4261 24.78 47.9126 24.9111L48.4074 26.8489C49.1473 26.66 49.8137 26.3531 50.3875 25.9144L49.1726 24.3256ZM47.9076 24.9124C47.3855 25.0486 46.8111 25.12 46.18 25.12V27.12C46.9622 27.12 47.7079 27.0314 48.4124 26.8476L47.9076 24.9124ZM46.18 25.12C45.0392 25.12 44.2556 24.9603 43.7533 24.7187L42.8867 26.5213C43.771 26.9464 44.8942 27.12 46.18 27.12V25.12ZM43.7391 24.712C43.5259 24.6137 43.4262 24.5126 43.3753 24.4352C43.326 24.3604 43.28 24.2438 43.28 24.04H41.28C41.28 24.5695 41.4073 25.083 41.7047 25.5348C42.0004 25.9841 42.4208 26.3063 42.9009 26.528L43.7391 24.712ZM43.28 24.04C43.28 23.8663 43.3132 23.7497 43.3544 23.6672L41.5656 22.7728C41.3668 23.1703 41.28 23.6004 41.28 24.04H43.28ZM43.3219 23.727C43.4083 23.5803 43.4735 23.5199 43.5 23.5L42.3 21.9C42.0065 22.1201 41.7784 22.4064 41.5981 22.713L43.3219 23.727ZM42.4169 23.5756C42.8718 23.8265 43.3703 24.0321 43.9078 24.1964L44.4922 22.2836C44.0697 22.1545 43.7015 22.0001 43.3831 21.8244L42.4169 23.5756ZM43.915 24.1985C44.5018 24.373 45.1045 24.46 45.72 24.46V22.46C45.2955 22.46 44.8848 22.4003 44.485 22.2815L43.915 24.1985ZM45.72 24.46C46.5365 24.46 47.2997 24.3263 47.9303 23.9716L46.9497 22.2284C46.7269 22.3538 46.3435 22.46 45.72 22.46V24.46ZM47.9303 23.9716C48.7048 23.5359 49.08 22.7951 49.08 21.94H47.08C47.08 22.0726 47.0541 22.1293 47.0444 22.1469C47.0371 22.1601 47.0192 22.1894 46.9497 22.2284L47.9303 23.9716ZM49.08 21.94V21.62H47.08V21.94H49.08ZM47.678 20.7044C47.2915 20.8741 46.7701 20.98 46.08 20.98V22.98C46.9632 22.98 47.7752 22.8459 48.482 22.5356L47.678 20.7044ZM46.08 20.98C45.5778 20.98 45.1067 20.9077 44.6622 20.7668L44.0578 22.6732C44.7066 22.879 45.3822 22.98 46.08 22.98V20.98ZM44.6904 20.7761C44.2808 20.6328 43.9234 20.4207 43.6103 20.1379L42.2697 21.6221C42.7833 22.086 43.3726 22.4339 44.0296 22.6639L44.6904 20.7761ZM43.635 20.161C43.347 19.8826 43.091 19.5078 42.8812 19.011L41.0388 19.789C41.3357 20.4922 41.733 21.1041 42.245 21.599L43.635 20.161ZM42.8885 19.0286C42.7069 18.5746 42.6 17.9934 42.6 17.26H40.6C40.6 18.1799 40.7331 19.0254 41.0315 19.7714L42.8885 19.0286ZM42.6 17.26C42.6 16.5481 42.7111 15.9794 42.9012 15.529L41.0588 14.751C40.7422 15.5006 40.6 16.3452 40.6 17.26H42.6ZM42.8938 15.5461C43.1061 15.0686 43.3805 14.701 43.7089 14.4208L42.4111 12.8992C41.8329 13.3923 41.3873 14.0114 41.0662 14.7339L42.8938 15.5461ZM43.7108 14.4193C44.0643 14.1163 44.4845 13.8876 44.9855 13.7384L44.4145 11.8216C43.6622 12.0457 42.989 12.4037 42.4092 12.9007L43.7108 14.4193ZM44.9983 13.7345C45.5315 13.5679 46.1231 13.48 46.78 13.48V11.48C45.9435 11.48 45.1485 11.5921 44.4017 11.8255L44.9983 13.7345ZM48.5161 14.5118C48.3183 14.3987 48.0874 14.3192 47.8747 14.2585L47.3253 16.1815C47.3987 16.2025 47.4521 16.2204 47.489 16.2345C47.5279 16.2493 47.5357 16.255 47.5239 16.2482L48.5161 14.5118ZM47.8941 14.2642C47.5921 14.1713 47.2641 14.14 46.94 14.14V16.14C47.1492 16.14 47.2612 16.162 47.3059 16.1758L47.8941 14.2642ZM46.94 14.14C46.094 14.14 45.2909 14.3879 44.7141 15.034L46.2059 16.366C46.2958 16.2654 46.4793 16.14 46.94 16.14V14.14ZM44.7126 15.0356C44.1737 15.6419 43.98 16.4354 43.98 17.26H45.98C45.98 16.7246 46.1063 16.4781 46.2074 16.3644L44.7126 15.0356ZM43.98 17.26C43.98 18.1335 44.1542 18.9997 44.7252 19.6183L46.1948 18.2617C46.1258 18.187 45.98 17.9332 45.98 17.26H43.98ZM44.7529 19.6471C45.2887 20.1829 45.9701 20.44 46.72 20.44V18.44C46.4566 18.44 46.2979 18.3637 46.1671 18.2329L44.7529 19.6471ZM46.72 20.44C47.4157 20.44 48.0923 20.2782 48.6407 19.844L47.3993 18.276C47.3077 18.3485 47.1177 18.44 46.72 18.44V20.44ZM49.02 19.06V15.38H47.02V19.06H49.02ZM63.0677 19.86L63.9975 20.2281L64 20.2215L63.0677 19.86ZM61.9877 21.48L61.3016 20.7524L61.2964 20.7574L61.2912 20.7624L61.9877 21.48ZM60.3477 22.48L60.0138 21.5374L60.3477 22.48ZM56.0677 22.46L55.7165 23.3963L56.0677 22.46ZM54.4077 21.44L53.7006 22.1471L53.7109 22.1575L53.7216 22.1676L54.4077 21.44ZM53.3477 19.8L52.4178 20.168L53.3477 19.8ZM53.3477 15.5L52.4178 15.132L53.3477 15.5ZM54.4077 13.88L55.1041 14.5976L55.1044 14.5973L54.4077 13.88ZM56.0677 12.84L56.4188 13.7763H56.4188L56.0677 12.84ZM60.3477 12.86L59.9796 13.7898L59.988 13.7931L59.9965 13.7963L60.3477 12.86ZM61.9877 13.9L61.2806 14.6071L61.2909 14.6175L61.3016 14.6276L61.9877 13.9ZM63.0677 15.52L62.1378 15.888L63.0677 15.52ZM56.9077 19.52L56.0873 20.0918L56.0972 20.1061L56.1077 20.12L56.9077 19.52ZM59.5077 19.5L58.6873 18.9282L58.6813 18.9367L58.6756 18.9453L59.5077 19.5ZM59.5077 15.8L58.6873 16.3718L58.6914 16.3777L58.6956 16.3836L59.5077 15.8ZM56.9077 15.8L57.7197 16.3836L57.7239 16.3777L57.7281 16.3718L56.9077 15.8ZM62.4477 17.64C62.4477 18.3648 62.3367 18.9791 62.1353 19.4985L64 20.2215C64.3053 19.4342 64.4477 18.5685 64.4477 17.64H62.4477ZM62.1378 19.492C61.9344 20.0058 61.654 20.4202 61.3016 20.7524L62.6737 22.2076C63.2546 21.6598 63.6942 20.9942 63.9975 20.228L62.1378 19.492ZM61.2912 20.7624C60.9487 21.0948 60.5284 21.3551 60.0138 21.5374L60.6815 23.4226C61.4469 23.1516 62.12 22.7452 62.6841 22.1976L61.2912 20.7624ZM60.0138 21.5374C59.4965 21.7206 58.8983 21.82 58.2077 21.82V23.82C59.0903 23.82 59.9188 23.6928 60.6815 23.4226L60.0138 21.5374ZM58.2077 21.82C57.5231 21.82 56.9309 21.7157 56.4188 21.5237L55.7165 23.3963C56.4844 23.6843 57.3189 23.82 58.2077 23.82V21.82ZM56.4188 21.5237C55.8949 21.3272 55.4574 21.0554 55.0937 20.7124L53.7216 22.1676C54.2912 22.7046 54.9604 23.1128 55.7165 23.3963L56.4188 21.5237ZM55.1148 20.7329C54.765 20.3831 54.4843 19.9544 54.2775 19.432L52.4178 20.168C52.7177 20.9256 53.1436 21.5902 53.7006 22.1471L55.1148 20.7329ZM54.2775 19.432C54.0774 18.9265 53.9677 18.3341 53.9677 17.64H51.9677C51.9677 18.5459 52.1113 19.3935 52.4178 20.168L54.2775 19.432ZM53.9677 17.64C53.9677 16.9615 54.0766 16.3754 54.2775 15.868L52.4178 15.132C52.112 15.9046 51.9677 16.7452 51.9677 17.64H53.9677ZM54.2775 15.868C54.4834 15.3478 54.7613 14.9304 55.1041 14.5976L53.7112 13.1624C53.1474 13.7096 52.7186 14.3722 52.4178 15.132L54.2775 15.868ZM55.1044 14.5973C55.4672 14.2448 55.9012 13.9704 56.4188 13.7763L55.7165 11.9037C54.9541 12.1896 54.2814 12.6085 53.7109 13.1627L55.1044 14.5973ZM56.4188 13.7763C56.9309 13.5843 57.5231 13.48 58.2077 13.48V11.48C57.3189 11.48 56.4844 11.6157 55.7165 11.9037L56.4188 13.7763ZM58.2077 13.48C58.8861 13.48 59.4723 13.589 59.9796 13.7898L60.7157 11.9302C59.943 11.6243 59.1025 11.48 58.2077 11.48V13.48ZM59.9965 13.7963C60.5119 13.9896 60.9347 14.2613 61.2806 14.6071L62.6948 13.1929C62.1339 12.632 61.4634 12.2104 60.6988 11.9237L59.9965 13.7963ZM61.3016 14.6276C61.654 14.9598 61.9344 15.3742 62.1378 15.888L63.9975 15.152C63.6942 14.3858 63.2546 13.7202 62.6737 13.1724L61.3016 14.6276ZM62.1378 15.888C62.3394 16.3973 62.4477 16.9772 62.4477 17.64H64.4477C64.4477 16.7562 64.3026 15.9227 63.9975 15.152L62.1378 15.888ZM55.4477 17.64C55.4477 18.5587 55.6175 19.4178 56.0873 20.0918L57.7281 18.9482C57.5844 18.7422 57.4477 18.348 57.4477 17.64H55.4477ZM56.1077 20.12C56.6273 20.8128 57.3713 21.16 58.2277 21.16V19.16C57.964 19.16 57.828 19.0805 57.7077 18.92L56.1077 20.12ZM58.2277 21.16C59.0985 21.16 59.8482 20.7919 60.3397 20.0547L58.6756 18.9453C58.5804 19.0881 58.4768 19.16 58.2277 19.16V21.16ZM60.3281 20.0718C60.7962 19.4001 60.9677 18.5495 60.9677 17.64H58.9677C58.9677 18.3305 58.8324 18.7199 58.6873 18.9282L60.3281 20.0718ZM60.9677 17.64C60.9677 16.7335 60.7974 15.881 60.3197 15.2164L58.6956 16.3836C58.8313 16.5724 58.9677 16.9465 58.9677 17.64H60.9677ZM60.3281 15.2282C59.8248 14.5062 59.0776 14.14 58.2077 14.14V16.14C58.4578 16.14 58.5772 16.2138 58.6873 16.3718L60.3281 15.2282ZM58.2077 14.14C57.3378 14.14 56.5905 14.5062 56.0873 15.2282L57.7281 16.3718C57.8381 16.2138 57.9576 16.14 58.2077 16.14V14.14ZM56.0956 15.2164C55.6179 15.881 55.4477 16.7335 55.4477 17.64H57.4477C57.4477 16.9465 57.584 16.5724 57.7197 16.3836L56.0956 15.2164ZM71.3664 12.72L71.0723 13.6758L71.0867 13.6802L71.1012 13.6842L71.3664 12.72ZM72.7464 13.4L72.125 14.1835L72.6954 14.6359L73.3011 14.232L72.7464 13.4ZM74.0864 12.74L73.7627 11.7938L73.7549 11.7965L74.0864 12.74ZM77.3864 12.68L77.1188 13.6435L77.1255 13.6454L77.3864 12.68ZM78.6864 13.32L78.0686 14.1063L78.084 14.1184L78.0999 14.1299L78.6864 13.32ZM79.6064 14.46L78.7021 14.887L78.7069 14.8969L79.6064 14.46ZM79.9464 22.48L80.2338 23.4378L80.9464 23.224V22.48H79.9464ZM79.3064 22.6L79.1713 21.6091L79.165 21.6101L79.3064 22.6ZM77.6264 22.6L77.4526 23.5848L77.462 23.5864L77.6264 22.6ZM77.0464 22.36L77.6464 21.56V21.56L77.0464 22.36ZM76.6664 21.88L75.7301 22.2311L75.7438 22.2676L75.7602 22.3029L76.6664 21.88ZM76.2064 15.42L75.5707 16.1919L75.5846 16.2034L75.599 16.2144L76.2064 15.42ZM74.6864 15.28L75.0375 16.2163L75.0626 16.2069L75.0872 16.1962L74.6864 15.28ZM74.2064 15.54L73.5479 14.7874L73.0881 15.1898L73.2363 15.7825L74.2064 15.54ZM74.2264 22.48L74.4895 23.4448L75.2264 23.2438V22.48H74.2264ZM73.5664 22.6L73.4313 21.6091L73.425 21.6101L73.5664 22.6ZM71.9064 22.6L71.7326 23.5848L71.742 23.5864L71.9064 22.6ZM71.3264 22.36L70.7264 23.16H70.7264L71.3264 22.36ZM70.9464 21.88L70.0101 22.2311L70.0238 22.2676L70.0402 22.3029L70.9464 21.88ZM70.4464 15.42L69.8325 16.2094L69.8565 16.2281L69.8817 16.2453L70.4464 15.42ZM68.9464 15.26L69.3054 16.1933L69.3358 16.1816L69.3655 16.168L68.9464 15.26ZM68.5064 15.46L68.0208 14.5858L67.5064 14.8716V15.46H68.5064ZM68.5064 22.48L68.7938 23.4378L69.5064 23.224V22.48H68.5064ZM67.8664 22.6L67.7313 21.6091L67.725 21.6101L67.8664 22.6ZM66.1864 22.6L66.0126 23.5848L66.022 23.5864L66.1864 22.6ZM65.6064 22.36L66.2064 21.56L65.6064 22.36ZM65.2264 21.88L64.2901 22.2311L64.3038 22.2676L64.3202 22.3029L65.2264 21.88ZM65.3264 14.16L64.5264 13.56L64.514 13.5765L64.5024 13.5935L65.3264 14.16ZM65.9664 13.56L66.5399 14.3792L66.5431 14.377L65.9664 13.56ZM67.6464 12.78L67.3642 11.8206L67.3591 11.8222L67.6464 12.78ZM69.7664 13.48C70.2139 13.48 70.6481 13.5452 71.0723 13.6758L71.6605 11.7642C71.0448 11.5748 70.4123 11.48 69.7664 11.48V13.48ZM71.1012 13.6842C71.5206 13.7995 71.8558 13.9699 72.125 14.1835L73.3678 12.6165C72.8637 12.2167 72.2789 11.9338 71.6316 11.7558L71.1012 13.6842ZM73.3011 14.232C73.6259 14.0155 73.9965 13.8315 74.4179 13.6835L73.7549 11.7965C73.1897 11.9951 72.667 12.2511 72.1917 12.5679L73.3011 14.232ZM74.4101 13.6862C74.7853 13.5578 75.2768 13.48 75.9064 13.48V11.48C75.1227 11.48 74.4009 11.5755 73.7627 11.7938L74.4101 13.6862ZM75.9064 13.48C76.3242 13.48 76.7274 13.5348 77.1188 13.6435L77.6541 11.7165C77.0854 11.5585 76.502 11.48 75.9064 11.48V13.48ZM77.1255 13.6454C77.4991 13.7463 77.8088 13.9022 78.0686 14.1063L79.3042 12.5337C78.8173 12.1511 78.2604 11.8803 77.6473 11.7146L77.1255 13.6454ZM78.0999 14.1299C78.3353 14.3004 78.5392 14.542 78.7022 14.887L80.5107 14.033C80.2202 13.418 79.8108 12.8996 79.2729 12.5101L78.0999 14.1299ZM78.7069 14.8969C78.8502 15.1919 78.9464 15.6062 78.9464 16.18H80.9464C80.9464 15.3938 80.8159 14.6614 80.5059 14.0231L78.7069 14.8969ZM78.9464 16.18V22.48H80.9464V16.18H78.9464ZM79.6591 21.5222C79.6051 21.5384 79.4571 21.5702 79.1713 21.6092L79.4415 23.5908C79.7424 23.5498 80.0211 23.5016 80.2338 23.4378L79.6591 21.5222ZM79.165 21.6101C78.9356 21.6428 78.6897 21.66 78.4264 21.66V23.66C78.7765 23.66 79.1173 23.6372 79.4478 23.5899L79.165 21.6101ZM78.4264 21.66C78.1774 21.66 77.9668 21.6429 77.7908 21.6136L77.462 23.5864C77.766 23.6371 78.0888 23.66 78.4264 23.66V21.66ZM77.8002 21.6152C77.7047 21.5984 77.6631 21.5725 77.6464 21.56L76.4464 23.16C76.7497 23.3875 77.0947 23.5216 77.4526 23.5848L77.8002 21.6152ZM77.6464 21.56C77.6311 21.5485 77.6037 21.5239 77.5726 21.4571L75.7602 22.3029C75.9157 22.6361 76.1417 22.9315 76.4464 23.16L77.6464 21.56ZM77.6027 21.5289C77.5795 21.467 77.5464 21.3239 77.5464 21.06H75.5464C75.5464 21.4627 75.5933 21.8664 75.7301 22.2311L77.6027 21.5289ZM77.5464 21.06V16.28H75.5464V21.06H77.5464ZM77.5464 16.28C77.5464 15.7013 77.3772 15.0564 76.8139 14.6256L75.599 16.2144C75.5808 16.2005 75.5642 16.1835 75.551 16.1656C75.5381 16.1481 75.5326 16.1355 75.5314 16.1327C75.5303 16.1298 75.5464 16.1702 75.5464 16.28H77.5464ZM76.8421 14.6481C76.3865 14.2728 75.8309 14.14 75.2864 14.14V16.14C75.4007 16.14 75.4734 16.1539 75.5152 16.1667C75.5543 16.1786 75.5679 16.1896 75.5707 16.1919L76.8421 14.6481ZM75.2864 14.14C74.9321 14.14 74.595 14.2285 74.2856 14.3638L75.0872 16.1962C75.2045 16.1449 75.2673 16.14 75.2864 16.14V14.14ZM74.3353 14.3437C74.0693 14.4434 73.7833 14.5814 73.5479 14.7874L74.8649 16.2926C74.8493 16.3063 74.8506 16.3017 74.8827 16.2843C74.9138 16.2675 74.9636 16.244 75.0375 16.2163L74.3353 14.3437ZM73.2363 15.7825C73.2304 15.759 73.2264 15.7309 73.2264 15.7H75.2264C75.2264 15.5624 75.2091 15.4277 75.1766 15.2975L73.2363 15.7825ZM73.2264 15.7C73.2264 15.7001 73.2264 15.7002 73.2264 15.7002C73.2264 15.7003 73.2264 15.7004 73.2264 15.7005C73.2264 15.7005 73.2264 15.7006 73.2264 15.7007C73.2264 15.7008 73.2264 15.7009 73.2264 15.7009C73.2264 15.701 73.2264 15.7011 73.2264 15.7012C73.2264 15.7013 73.2264 15.7013 73.2264 15.7014C73.2264 15.7015 73.2264 15.7016 73.2264 15.7016C73.2264 15.7017 73.2264 15.7018 73.2264 15.7019C73.2264 15.702 73.2264 15.702 73.2264 15.7021C73.2264 15.7022 73.2264 15.7023 73.2264 15.7023C73.2264 15.7024 73.2264 15.7025 73.2264 15.7026C73.2264 15.7027 73.2264 15.7027 73.2264 15.7028C73.2264 15.7029 73.2264 15.703 73.2264 15.703C73.2264 15.7031 73.2264 15.7032 73.2264 15.7033C73.2264 15.7034 73.2264 15.7034 73.2264 15.7035C73.2264 15.7036 73.2264 15.7037 73.2264 15.7037C73.2264 15.7038 73.2264 15.7039 73.2264 15.704C73.2264 15.7041 73.2264 15.7041 73.2264 15.7042C73.2264 15.7043 73.2264 15.7044 73.2264 15.7045C73.2264 15.7045 73.2264 15.7046 73.2264 15.7047C73.2264 15.7048 73.2264 15.7048 73.2264 15.7049C73.2264 15.705 73.2264 15.7051 73.2264 15.7052C73.2264 15.7052 73.2264 15.7053 73.2264 15.7054C73.2264 15.7055 73.2264 15.7055 73.2264 15.7056C73.2264 15.7057 73.2264 15.7058 73.2264 15.7059C73.2264 15.7059 73.2264 15.706 73.2264 15.7061C73.2264 15.7062 73.2264 15.7063 73.2264 15.7063C73.2264 15.7064 73.2264 15.7065 73.2264 15.7066C73.2264 15.7066 73.2264 15.7067 73.2264 15.7068C73.2264 15.7069 73.2264 15.707 73.2264 15.707C73.2264 15.7071 73.2264 15.7072 73.2264 15.7073C73.2264 15.7073 73.2264 15.7074 73.2264 15.7075C73.2264 15.7076 73.2264 15.7077 73.2264 15.7077C73.2264 15.7078 73.2264 15.7079 73.2264 15.708C73.2264 15.708 73.2264 15.7081 73.2264 15.7082C73.2264 15.7083 73.2264 15.7084 73.2264 15.7084C73.2264 15.7085 73.2264 15.7086 73.2264 15.7087C73.2264 15.7087 73.2264 15.7088 73.2264 15.7089C73.2264 15.709 73.2264 15.7091 73.2264 15.7091C73.2264 15.7092 73.2264 15.7093 73.2264 15.7094C73.2264 15.7095 73.2264 15.7095 73.2264 15.7096C73.2264 15.7097 73.2264 15.7098 73.2264 15.7098C73.2264 15.7099 73.2264 15.71 73.2264 15.7101C73.2264 15.7102 73.2264 15.7102 73.2264 15.7103C73.2264 15.7104 73.2264 15.7105 73.2264 15.7105C73.2264 15.7106 73.2264 15.7107 73.2264 15.7108C73.2264 15.7109 73.2264 15.7109 73.2264 15.711C73.2264 15.7111 73.2264 15.7112 73.2264 15.7113C73.2264 15.7113 73.2264 15.7114 73.2264 15.7115C73.2264 15.7116 73.2264 15.7116 73.2264 15.7117C73.2264 15.7118 73.2264 15.7119 73.2264 15.712C73.2264 15.712 73.2264 15.7121 73.2264 15.7122C73.2264 15.7123 73.2264 15.7123 73.2264 15.7124C73.2264 15.7125 73.2264 15.7126 73.2264 15.7127C73.2264 15.7127 73.2264 15.7128 73.2264 15.7129C73.2264 15.713 73.2264 15.713 73.2264 15.7131C73.2264 15.7132 73.2264 15.7133 73.2264 15.7134C73.2264 15.7134 73.2264 15.7135 73.2264 15.7136C73.2264 15.7137 73.2264 15.7137 73.2264 15.7138C73.2264 15.7139 73.2264 15.714 73.2264 15.7141C73.2264 15.7141 73.2264 15.7142 73.2264 15.7143C73.2264 15.7144 73.2264 15.7145 73.2264 15.7145C73.2264 15.7146 73.2264 15.7147 73.2264 15.7148C73.2264 15.7148 73.2264 15.7149 73.2264 15.715C73.2264 15.7151 73.2264 15.7152 73.2264 15.7152C73.2264 15.7153 73.2264 15.7154 73.2264 15.7155C73.2264 15.7155 73.2264 15.7156 73.2264 15.7157C73.2264 15.7158 73.2264 15.7159 73.2264 15.7159C73.2264 15.716 73.2264 15.7161 73.2264 15.7162C73.2264 15.7162 73.2264 15.7163 73.2264 15.7164C73.2264 15.7165 73.2264 15.7166 73.2264 15.7166C73.2264 15.7167 73.2264 15.7168 73.2264 15.7169C73.2264 15.717 73.2264 15.717 73.2264 15.7171C73.2264 15.7172 73.2264 15.7173 73.2264 15.7173C73.2264 15.7174 73.2264 15.7175 73.2264 15.7176C73.2264 15.7177 73.2264 15.7177 73.2264 15.7178C73.2264 15.7179 73.2264 15.718 73.2264 15.718C73.2264 15.7181 73.2264 15.7182 73.2264 15.7183C73.2264 15.7184 73.2264 15.7184 73.2264 15.7185C73.2264 15.7186 73.2264 15.7187 73.2264 15.7188C73.2264 15.7188 73.2264 15.7189 73.2264 15.719C73.2264 15.7191 73.2264 15.7191 73.2264 15.7192C73.2264 15.7193 73.2264 15.7194 73.2264 15.7195C73.2264 15.7195 73.2264 15.7196 73.2264 15.7197C73.2264 15.7198 73.2264 15.7198 73.2264 15.7199C73.2264 15.72 73.2264 15.7201 73.2264 15.7202C73.2264 15.7202 73.2264 15.7203 73.2264 15.7204C73.2264 15.7205 73.2264 15.7205 73.2264 15.7206C73.2264 15.7207 73.2264 15.7208 73.2264 15.7209C73.2264 15.7209 73.2264 15.721 73.2264 15.7211C73.2264 15.7212 73.2264 15.7212 73.2264 15.7213C73.2264 15.7214 73.2264 15.7215 73.2264 15.7216C73.2264 15.7216 73.2264 15.7217 73.2264 15.7218C73.2264 15.7219 73.2264 15.722 73.2264 15.722C73.2264 15.7221 73.2264 15.7222 73.2264 15.7223C73.2264 15.7223 73.2264 15.7224 73.2264 15.7225C73.2264 15.7226 73.2264 15.7227 73.2264 15.7227C73.2264 15.7228 73.2264 15.7229 73.2264 15.723C73.2264 15.723 73.2264 15.7231 73.2264 15.7232C73.2264 15.7233 73.2264 15.7234 73.2264 15.7234C73.2264 15.7235 73.2264 15.7236 73.2264 15.7237C73.2264 15.7238 73.2264 15.7238 73.2264 15.7239C73.2264 15.724 73.2264 15.7241 73.2264 15.7241C73.2264 15.7242 73.2264 15.7243 73.2264 15.7244C73.2264 15.7245 73.2264 15.7245 73.2264 15.7246C73.2264 15.7247 73.2264 15.7248 73.2264 15.7248C73.2264 15.7249 73.2264 15.725 73.2264 15.7251C73.2264 15.7252 73.2264 15.7252 73.2264 15.7253C73.2264 15.7254 73.2264 15.7255 73.2264 15.7255C73.2264 15.7256 73.2264 15.7257 73.2264 15.7258C73.2264 15.7259 73.2264 15.7259 73.2264 15.726C73.2264 15.7261 73.2264 15.7262 73.2264 15.7262C73.2264 15.7263 73.2264 15.7264 73.2264 15.7265C73.2264 15.7266 73.2264 15.7266 73.2264 15.7267C73.2264 15.7268 73.2264 15.7269 73.2264 15.727C73.2264 15.727 73.2264 15.7271 73.2264 15.7272C73.2264 15.7273 73.2264 15.7273 73.2264 15.7274C73.2264 15.7275 73.2264 15.7276 73.2264 15.7277C73.2264 15.7277 73.2264 15.7278 73.2264 15.7279C73.2264 15.728 73.2264 15.728 73.2264 15.7281C73.2264 15.7282 73.2264 15.7283 73.2264 15.7284C73.2264 15.7284 73.2264 15.7285 73.2264 15.7286C73.2264 15.7287 73.2264 15.7288 73.2264 15.7288C73.2264 15.7289 73.2264 15.729 73.2264 15.7291C73.2264 15.7291 73.2264 15.7292 73.2264 15.7293C73.2264 15.7294 73.2264 15.7295 73.2264 15.7295C73.2264 15.7296 73.2264 15.7297 73.2264 15.7298C73.2264 15.7298 73.2264 15.7299 73.2264 15.73C73.2264 15.7301 73.2264 15.7302 73.2264 15.7302C73.2264 15.7303 73.2264 15.7304 73.2264 15.7305C73.2264 15.7305 73.2264 15.7306 73.2264 15.7307C73.2264 15.7308 73.2264 15.7309 73.2264 15.7309C73.2264 15.731 73.2264 15.7311 73.2264 15.7312C73.2264 15.7312 73.2264 15.7313 73.2264 15.7314C73.2264 15.7315 73.2264 15.7316 73.2264 15.7316C73.2264 15.7317 73.2264 15.7318 73.2264 15.7319C73.2264 15.732 73.2264 15.732 73.2264 15.7321C73.2264 15.7322 73.2264 15.7323 73.2264 15.7323C73.2264 15.7324 73.2264 15.7325 73.2264 15.7326C73.2264 15.7327 73.2264 15.7327 73.2264 15.7328C73.2264 15.7329 73.2264 15.733 73.2264 15.733C73.2264 15.7331 73.2264 15.7332 73.2264 15.7333C73.2264 15.7334 73.2264 15.7334 73.2264 15.7335C73.2264 15.7336 73.2264 15.7337 73.2264 15.7337C73.2264 15.7338 73.2264 15.7339 73.2264 15.734C73.2264 15.7341 73.2264 15.7341 73.2264 15.7342C73.2264 15.7343 73.2264 15.7344 73.2264 15.7345C73.2264 15.7345 73.2264 15.7346 73.2264 15.7347C73.2264 15.7348 73.2264 15.7348 73.2264 15.7349C73.2264 15.735 73.2264 15.7351 73.2264 15.7352C73.2264 15.7352 73.2264 15.7353 73.2264 15.7354C73.2264 15.7355 73.2264 15.7355 73.2264 15.7356C73.2264 15.7357 73.2264 15.7358 73.2264 15.7359C73.2264 15.7359 73.2264 15.736 73.2264 15.7361C73.2264 15.7362 73.2264 15.7362 73.2264 15.7363C73.2264 15.7364 73.2264 15.7365 73.2264 15.7366C73.2264 15.7366 73.2264 15.7367 73.2264 15.7368C73.2264 15.7369 73.2264 15.737 73.2264 15.737C73.2264 15.7371 73.2264 15.7372 73.2264 15.7373C73.2264 15.7373 73.2264 15.7374 73.2264 15.7375C73.2264 15.7376 73.2264 15.7377 73.2264 15.7377C73.2264 15.7378 73.2264 15.7379 73.2264 15.738C73.2264 15.738 73.2264 15.7381 73.2264 15.7382C73.2264 15.7383 73.2264 15.7384 73.2264 15.7384C73.2264 15.7385 73.2264 15.7386 73.2264 15.7387C73.2264 15.7387 73.2264 15.7388 73.2264 15.7389C73.2264 15.739 73.2264 15.7391 73.2264 15.7391C73.2264 15.7392 73.2264 15.7393 73.2264 15.7394C73.2264 15.7395 73.2264 15.7395 73.2264 15.7396C73.2264 15.7397 73.2264 15.7398 73.2264 15.7398C73.2264 15.7399 73.2264 15.74 73.2264 15.7401C73.2264 15.7402 73.2264 15.7402 73.2264 15.7403C73.2264 15.7404 73.2264 15.7405 73.2264 15.7405C73.2264 15.7406 73.2264 15.7407 73.2264 15.7408C73.2264 15.7409 73.2264 15.7409 73.2264 15.741C73.2264 15.7411 73.2264 15.7412 73.2264 15.7413C73.2264 15.7413 73.2264 15.7414 73.2264 15.7415C73.2264 15.7416 73.2264 15.7416 73.2264 15.7417C73.2264 15.7418 73.2264 15.7419 73.2264 15.742C73.2264 15.742 73.2264 15.7421 73.2264 15.7422C73.2264 15.7423 73.2264 15.7423 73.2264 15.7424C73.2264 15.7425 73.2264 15.7426 73.2264 15.7427C73.2264 15.7427 73.2264 15.7428 73.2264 15.7429C73.2264 15.743 73.2264 15.743 73.2264 15.7431C73.2264 15.7432 73.2264 15.7433 73.2264 15.7434C73.2264 15.7434 73.2264 15.7435 73.2264 15.7436C73.2264 15.7437 73.2264 15.7437 73.2264 15.7438C73.2264 15.7439 73.2264 15.744 73.2264 15.7441C73.2264 15.7441 73.2264 15.7442 73.2264 15.7443C73.2264 15.7444 73.2264 15.7445 73.2264 15.7445C73.2264 15.7446 73.2264 15.7447 73.2264 15.7448C73.2264 15.7448 73.2264 15.7449 73.2264 15.745C73.2264 15.7451 73.2264 15.7452 73.2264 15.7452C73.2264 15.7453 73.2264 15.7454 73.2264 15.7455C73.2264 15.7455 73.2264 15.7456 73.2264 15.7457C73.2264 15.7458 73.2264 15.7459 73.2264 15.7459C73.2264 15.746 73.2264 15.7461 73.2264 15.7462C73.2264 15.7463 73.2264 15.7463 73.2264 15.7464C73.2264 15.7465 73.2264 15.7466 73.2264 15.7466C73.2264 15.7467 73.2264 15.7468 73.2264 15.7469C73.2264 15.747 73.2264 15.747 73.2264 15.7471C73.2264 15.7472 73.2264 15.7473 73.2264 15.7473C73.2264 15.7474 73.2264 15.7475 73.2264 15.7476C73.2264 15.7477 73.2264 15.7477 73.2264 15.7478C73.2264 15.7479 73.2264 15.748 73.2264 15.748C73.2264 15.7481 73.2264 15.7482 73.2264 15.7483C73.2264 15.7484 73.2264 15.7484 73.2264 15.7485C73.2264 15.7486 73.2264 15.7487 73.2264 15.7487C73.2264 15.7488 73.2264 15.7489 73.2264 15.749C73.2264 15.7491 73.2264 15.7491 73.2264 15.7492C73.2264 15.7493 73.2264 15.7494 73.2264 15.7495C73.2264 15.7495 73.2264 15.7496 73.2264 15.7497C73.2264 15.7498 73.2264 15.7498 73.2264 15.7499C73.2264 15.75 73.2264 15.7501 73.2264 15.7502C73.2264 15.7502 73.2264 15.7503 73.2264 15.7504C73.2264 15.7505 73.2264 15.7505 73.2264 15.7506C73.2264 15.7507 73.2264 15.7508 73.2264 15.7509C73.2264 15.7509 73.2264 15.751 73.2264 15.7511C73.2264 15.7512 73.2264 15.7512 73.2264 15.7513C73.2264 15.7514 73.2264 15.7515 73.2264 15.7516C73.2264 15.7516 73.2264 15.7517 73.2264 15.7518C73.2264 15.7519 73.2264 15.752 73.2264 15.752C73.2264 15.7521 73.2264 15.7522 73.2264 15.7523C73.2264 15.7523 73.2264 15.7524 73.2264 15.7525C73.2264 15.7526 73.2264 15.7527 73.2264 15.7527C73.2264 15.7528 73.2264 15.7529 73.2264 15.753C73.2264 15.753 73.2264 15.7531 73.2264 15.7532C73.2264 15.7533 73.2264 15.7534 73.2264 15.7534C73.2264 15.7535 73.2264 15.7536 73.2264 15.7537C73.2264 15.7537 73.2264 15.7538 73.2264 15.7539C73.2264 15.754 73.2264 15.7541 73.2264 15.7541C73.2264 15.7542 73.2264 15.7543 73.2264 15.7544C73.2264 15.7545 73.2264 15.7545 73.2264 15.7546C73.2264 15.7547 73.2264 15.7548 73.2264 15.7548C73.2264 15.7549 73.2264 15.755 73.2264 15.7551C73.2264 15.7552 73.2264 15.7552 73.2264 15.7553C73.2264 15.7554 73.2264 15.7555 73.2264 15.7555C73.2264 15.7556 73.2264 15.7557 73.2264 15.7558C73.2264 15.7559 73.2264 15.7559 73.2264 15.756C73.2264 15.7561 73.2264 15.7562 73.2264 15.7562C73.2264 15.7563 73.2264 15.7564 73.2264 15.7565C73.2264 15.7566 73.2264 15.7566 73.2264 15.7567C73.2264 15.7568 73.2264 15.7569 73.2264 15.757C73.2264 15.757 73.2264 15.7571 73.2264 15.7572C73.2264 15.7573 73.2264 15.7573 73.2264 15.7574C73.2264 15.7575 73.2264 15.7576 73.2264 15.7577C73.2264 15.7577 73.2264 15.7578 73.2264 15.7579C73.2264 15.758 73.2264 15.758 73.2264 15.7581C73.2264 15.7582 73.2264 15.7583 73.2264 15.7584C73.2264 15.7584 73.2264 15.7585 73.2264 15.7586C73.2264 15.7587 73.2264 15.7587 73.2264 15.7588C73.2264 15.7589 73.2264 15.759 73.2264 15.7591C73.2264 15.7591 73.2264 15.7592 73.2264 15.7593C73.2264 15.7594 73.2264 15.7595 73.2264 15.7595C73.2264 15.7596 73.2264 15.7597 73.2264 15.7598C73.2264 15.7598 73.2264 15.7599 73.2264 15.76C73.2264 15.7601 73.2264 15.7602 73.2264 15.7602C73.2264 15.7603 73.2264 15.7604 73.2264 15.7605C73.2264 15.7605 73.2264 15.7606 73.2264 15.7607C73.2264 15.7608 73.2264 15.7609 73.2264 15.7609C73.2264 15.761 73.2264 15.7611 73.2264 15.7612C73.2264 15.7612 73.2264 15.7613 73.2264 15.7614C73.2264 15.7615 73.2264 15.7616 73.2264 15.7616C73.2264 15.7617 73.2264 15.7618 73.2264 15.7619C73.2264 15.762 73.2264 15.762 73.2264 15.7621C73.2264 15.7622 73.2264 15.7623 73.2264 15.7623C73.2264 15.7624 73.2264 15.7625 73.2264 15.7626C73.2264 15.7627 73.2264 15.7627 73.2264 15.7628C73.2264 15.7629 73.2264 15.763 73.2264 15.763C73.2264 15.7631 73.2264 15.7632 73.2264 15.7633C73.2264 15.7634 73.2264 15.7634 73.2264 15.7635C73.2264 15.7636 73.2264 15.7637 73.2264 15.7638C73.2264 15.7638 73.2264 15.7639 73.2264 15.764C73.2264 15.7641 73.2264 15.7641 73.2264 15.7642C73.2264 15.7643 73.2264 15.7644 73.2264 15.7645C73.2264 15.7645 73.2264 15.7646 73.2264 15.7647C73.2264 15.7648 73.2264 15.7648 73.2264 15.7649C73.2264 15.765 73.2264 15.7651 73.2264 15.7652C73.2264 15.7652 73.2264 15.7653 73.2264 15.7654C73.2264 15.7655 73.2264 15.7655 73.2264 15.7656C73.2264 15.7657 73.2264 15.7658 73.2264 15.7659C73.2264 15.7659 73.2264 15.766 73.2264 15.7661C73.2264 15.7662 73.2264 15.7662 73.2264 15.7663C73.2264 15.7664 73.2264 15.7665 73.2264 15.7666C73.2264 15.7666 73.2264 15.7667 73.2264 15.7668C73.2264 15.7669 73.2264 15.767 73.2264 15.767C73.2264 15.7671 73.2264 15.7672 73.2264 15.7673C73.2264 15.7673 73.2264 15.7674 73.2264 15.7675C73.2264 15.7676 73.2264 15.7677 73.2264 15.7677C73.2264 15.7678 73.2264 15.7679 73.2264 15.768C73.2264 15.768 73.2264 15.7681 73.2264 15.7682C73.2264 15.7683 73.2264 15.7684 73.2264 15.7684C73.2264 15.7685 73.2264 15.7686 73.2264 15.7687C73.2264 15.7688 73.2264 15.7688 73.2264 15.7689C73.2264 15.769 73.2264 15.7691 73.2264 15.7691C73.2264 15.7692 73.2264 15.7693 73.2264 15.7694C73.2264 15.7695 73.2264 15.7695 73.2264 15.7696C73.2264 15.7697 73.2264 15.7698 73.2264 15.7698C73.2264 15.7699 73.2264 15.77 73.2264 15.7701C73.2264 15.7702 73.2264 15.7702 73.2264 15.7703C73.2264 15.7704 73.2264 15.7705 73.2264 15.7705C73.2264 15.7706 73.2264 15.7707 73.2264 15.7708C73.2264 15.7709 73.2264 15.7709 73.2264 15.771C73.2264 15.7711 73.2264 15.7712 73.2264 15.7712C73.2264 15.7713 73.2264 15.7714 73.2264 15.7715C73.2264 15.7716 73.2264 15.7716 73.2264 15.7717C73.2264 15.7718 73.2264 15.7719 73.2264 15.772C73.2264 15.772 73.2264 15.7721 73.2264 15.7722C73.2264 15.7723 73.2264 15.7723 73.2264 15.7724C73.2264 15.7725 73.2264 15.7726 73.2264 15.7727C73.2264 15.7727 73.2264 15.7728 73.2264 15.7729C73.2264 15.773 73.2264 15.773 73.2264 15.7731C73.2264 15.7732 73.2264 15.7733 73.2264 15.7734C73.2264 15.7734 73.2264 15.7735 73.2264 15.7736C73.2264 15.7737 73.2264 15.7737 73.2264 15.7738C73.2264 15.7739 73.2264 15.774 73.2264 15.7741C73.2264 15.7741 73.2264 15.7742 73.2264 15.7743C73.2264 15.7744 73.2264 15.7745 73.2264 15.7745C73.2264 15.7746 73.2264 15.7747 73.2264 15.7748C73.2264 15.7748 73.2264 15.7749 73.2264 15.775C73.2264 15.7751 73.2264 15.7752 73.2264 15.7752C73.2264 15.7753 73.2264 15.7754 73.2264 15.7755C73.2264 15.7755 73.2264 15.7756 73.2264 15.7757C73.2264 15.7758 73.2264 15.7759 73.2264 15.7759C73.2264 15.776 73.2264 15.7761 73.2264 15.7762C73.2264 15.7762 73.2264 15.7763 73.2264 15.7764C73.2264 15.7765 73.2264 15.7766 73.2264 15.7766C73.2264 15.7767 73.2264 15.7768 73.2264 15.7769C73.2264 15.777 73.2264 15.777 73.2264 15.7771C73.2264 15.7772 73.2264 15.7773 73.2264 15.7773C73.2264 15.7774 73.2264 15.7775 73.2264 15.7776C73.2264 15.7777 73.2264 15.7777 73.2264 15.7778C73.2264 15.7779 73.2264 15.778 73.2264 15.778C73.2264 15.7781 73.2264 15.7782 73.2264 15.7783C73.2264 15.7784 73.2264 15.7784 73.2264 15.7785C73.2264 15.7786 73.2264 15.7787 73.2264 15.7787C73.2264 15.7788 73.2264 15.7789 73.2264 15.779C73.2264 15.7791 73.2264 15.7791 73.2264 15.7792C73.2264 15.7793 73.2264 15.7794 73.2264 15.7795C73.2264 15.7795 73.2264 15.7796 73.2264 15.7797C73.2264 15.7798 73.2264 15.7798 73.2264 15.7799C73.2264 15.78 73.2264 15.7801 73.2264 15.7802C73.2264 15.7802 73.2264 15.7803 73.2264 15.7804C73.2264 15.7805 73.2264 15.7805 73.2264 15.7806C73.2264 15.7807 73.2264 15.7808 73.2264 15.7809C73.2264 15.7809 73.2264 15.781 73.2264 15.7811C73.2264 15.7812 73.2264 15.7812 73.2264 15.7813C73.2264 15.7814 73.2264 15.7815 73.2264 15.7816C73.2264 15.7816 73.2264 15.7817 73.2264 15.7818C73.2264 15.7819 73.2264 15.782 73.2264 15.782C73.2264 15.7821 73.2264 15.7822 73.2264 15.7823C73.2264 15.7823 73.2264 15.7824 73.2264 15.7825C73.2264 15.7826 73.2264 15.7827 73.2264 15.7827C73.2264 15.7828 73.2264 15.7829 73.2264 15.783C73.2264 15.783 73.2264 15.7831 73.2264 15.7832C73.2264 15.7833 73.2264 15.7834 73.2264 15.7834C73.2264 15.7835 73.2264 15.7836 73.2264 15.7837C73.2264 15.7837 73.2264 15.7838 73.2264 15.7839C73.2264 15.784 73.2264 15.7841 73.2264 15.7841C73.2264 15.7842 73.2264 15.7843 73.2264 15.7844C73.2264 15.7845 73.2264 15.7845 73.2264 15.7846C73.2264 15.7847 73.2264 15.7848 73.2264 15.7848C73.2264 15.7849 73.2264 15.785 73.2264 15.7851C73.2264 15.7852 73.2264 15.7852 73.2264 15.7853C73.2264 15.7854 73.2264 15.7855 73.2264 15.7855C73.2264 15.7856 73.2264 15.7857 73.2264 15.7858C73.2264 15.7859 73.2264 15.7859 73.2264 15.786C73.2264 15.7861 73.2264 15.7862 73.2264 15.7863C73.2264 15.7863 73.2264 15.7864 73.2264 15.7865C73.2264 15.7866 73.2264 15.7866 73.2264 15.7867C73.2264 15.7868 73.2264 15.7869 73.2264 15.787C73.2264 15.787 73.2264 15.7871 73.2264 15.7872C73.2264 15.7873 73.2264 15.7873 73.2264 15.7874C73.2264 15.7875 73.2264 15.7876 73.2264 15.7877C73.2264 15.7877 73.2264 15.7878 73.2264 15.7879C73.2264 15.788 73.2264 15.788 73.2264 15.7881C73.2264 15.7882 73.2264 15.7883 73.2264 15.7884C73.2264 15.7884 73.2264 15.7885 73.2264 15.7886C73.2264 15.7887 73.2264 15.7887 73.2264 15.7888C73.2264 15.7889 73.2264 15.789 73.2264 15.7891C73.2264 15.7891 73.2264 15.7892 73.2264 15.7893C73.2264 15.7894 73.2264 15.7895 73.2264 15.7895C73.2264 15.7896 73.2264 15.7897 73.2264 15.7898C73.2264 15.7898 73.2264 15.7899 73.2264 15.79C73.2264 15.7901 73.2264 15.7902 73.2264 15.7902C73.2264 15.7903 73.2264 15.7904 73.2264 15.7905C73.2264 15.7905 73.2264 15.7906 73.2264 15.7907C73.2264 15.7908 73.2264 15.7909 73.2264 15.7909C73.2264 15.791 73.2264 15.7911 73.2264 15.7912C73.2264 15.7912 73.2264 15.7913 73.2264 15.7914C73.2264 15.7915 73.2264 15.7916 73.2264 15.7916C73.2264 15.7917 73.2264 15.7918 73.2264 15.7919C73.2264 15.792 73.2264 15.792 73.2264 15.7921C73.2264 15.7922 73.2264 15.7923 73.2264 15.7923C73.2264 15.7924 73.2264 15.7925 73.2264 15.7926C73.2264 15.7927 73.2264 15.7927 73.2264 15.7928C73.2264 15.7929 73.2264 15.793 73.2264 15.793C73.2264 15.7931 73.2264 15.7932 73.2264 15.7933C73.2264 15.7934 73.2264 15.7934 73.2264 15.7935C73.2264 15.7936 73.2264 15.7937 73.2264 15.7937C73.2264 15.7938 73.2264 15.7939 73.2264 15.794C73.2264 15.7941 73.2264 15.7941 73.2264 15.7942C73.2264 15.7943 73.2264 15.7944 73.2264 15.7945C73.2264 15.7945 73.2264 15.7946 73.2264 15.7947C73.2264 15.7948 73.2264 15.7948 73.2264 15.7949C73.2264 15.795 73.2264 15.7951 73.2264 15.7952C73.2264 15.7952 73.2264 15.7953 73.2264 15.7954C73.2264 15.7955 73.2264 15.7955 73.2264 15.7956C73.2264 15.7957 73.2264 15.7958 73.2264 15.7959C73.2264 15.7959 73.2264 15.796 73.2264 15.7961C73.2264 15.7962 73.2264 15.7962 73.2264 15.7963C73.2264 15.7964 73.2264 15.7965 73.2264 15.7966C73.2264 15.7966 73.2264 15.7967 73.2264 15.7968C73.2264 15.7969 73.2264 15.797 73.2264 15.797C73.2264 15.7971 73.2264 15.7972 73.2264 15.7973C73.2264 15.7973 73.2264 15.7974 73.2264 15.7975C73.2264 15.7976 73.2264 15.7977 73.2264 15.7977C73.2264 15.7978 73.2264 15.7979 73.2264 15.798C73.2264 15.798 73.2264 15.7981 73.2264 15.7982C73.2264 15.7983 73.2264 15.7984 73.2264 15.7984C73.2264 15.7985 73.2264 15.7986 73.2264 15.7987C73.2264 15.7987 73.2264 15.7988 73.2264 15.7989C73.2264 15.799 73.2264 15.7991 73.2264 15.7991C73.2264 15.7992 73.2264 15.7993 73.2264 15.7994C73.2264 15.7995 73.2264 15.7995 73.2264 15.7996C73.2264 15.7997 73.2264 15.7998 73.2264 15.7998C73.2264 15.7999 73.2264 15.8 73.2264 15.8001C73.2264 15.8002 73.2264 15.8002 73.2264 15.8003C73.2264 15.8004 73.2264 15.8005 73.2264 15.8005C73.2264 15.8006 73.2264 15.8007 73.2264 15.8008C73.2264 15.8009 73.2264 15.8009 73.2264 15.801C73.2264 15.8011 73.2264 15.8012 73.2264 15.8012C73.2264 15.8013 73.2264 15.8014 73.2264 15.8015C73.2264 15.8016 73.2264 15.8016 73.2264 15.8017C73.2264 15.8018 73.2264 15.8019 73.2264 15.802C73.2264 15.802 73.2264 15.8021 73.2264 15.8022C73.2264 15.8023 73.2264 15.8023 73.2264 15.8024C73.2264 15.8025 73.2264 15.8026 73.2264 15.8027C73.2264 15.8027 73.2264 15.8028 73.2264 15.8029C73.2264 15.803 73.2264 15.803 73.2264 15.8031C73.2264 15.8032 73.2264 15.8033 73.2264 15.8034C73.2264 15.8034 73.2264 15.8035 73.2264 15.8036C73.2264 15.8037 73.2264 15.8038 73.2264 15.8038C73.2264 15.8039 73.2264 15.804 73.2264 15.8041C73.2264 15.8041 73.2264 15.8042 73.2264 15.8043C73.2264 15.8044 73.2264 15.8045 73.2264 15.8045C73.2264 15.8046 73.2264 15.8047 73.2264 15.8048C73.2264 15.8048 73.2264 15.8049 73.2264 15.805C73.2264 15.8051 73.2264 15.8052 73.2264 15.8052C73.2264 15.8053 73.2264 15.8054 73.2264 15.8055C73.2264 15.8055 73.2264 15.8056 73.2264 15.8057C73.2264 15.8058 73.2264 15.8059 73.2264 15.8059C73.2264 15.806 73.2264 15.8061 73.2264 15.8062C73.2264 15.8062 73.2264 15.8063 73.2264 15.8064C73.2264 15.8065 73.2264 15.8066 73.2264 15.8066C73.2264 15.8067 73.2264 15.8068 73.2264 15.8069C73.2264 15.807 73.2264 15.807 73.2264 15.8071C73.2264 15.8072 73.2264 15.8073 73.2264 15.8073C73.2264 15.8074 73.2264 15.8075 73.2264 15.8076C73.2264 15.8077 73.2264 15.8077 73.2264 15.8078C73.2264 15.8079 73.2264 15.808 73.2264 15.808C73.2264 15.8081 73.2264 15.8082 73.2264 15.8083C73.2264 15.8084 73.2264 15.8084 73.2264 15.8085C73.2264 15.8086 73.2264 15.8087 73.2264 15.8087C73.2264 15.8088 73.2264 15.8089 73.2264 15.809C73.2264 15.8091 73.2264 15.8091 73.2264 15.8092C73.2264 15.8093 73.2264 15.8094 73.2264 15.8095C73.2264 15.8095 73.2264 15.8096 73.2264 15.8097C73.2264 15.8098 73.2264 15.8098 73.2264 15.8099C73.2264 15.81 73.2264 15.8101 73.2264 15.8102C73.2264 15.8102 73.2264 15.8103 73.2264 15.8104C73.2264 15.8105 73.2264 15.8105 73.2264 15.8106C73.2264 15.8107 73.2264 15.8108 73.2264 15.8109C73.2264 15.8109 73.2264 15.811 73.2264 15.8111C73.2264 15.8112 73.2264 15.8112 73.2264 15.8113C73.2264 15.8114 73.2264 15.8115 73.2264 15.8116C73.2264 15.8116 73.2264 15.8117 73.2264 15.8118C73.2264 15.8119 73.2264 15.812 73.2264 15.812C73.2264 15.8121 73.2264 15.8122 73.2264 15.8123C73.2264 15.8123 73.2264 15.8124 73.2264 15.8125C73.2264 15.8126 73.2264 15.8127 73.2264 15.8127C73.2264 15.8128 73.2264 15.8129 73.2264 15.813C73.2264 15.813 73.2264 15.8131 73.2264 15.8132C73.2264 15.8133 73.2264 15.8134 73.2264 15.8134C73.2264 15.8135 73.2264 15.8136 73.2264 15.8137C73.2264 15.8137 73.2264 15.8138 73.2264 15.8139C73.2264 15.814 73.2264 15.8141 73.2264 15.8141C73.2264 15.8142 73.2264 15.8143 73.2264 15.8144C73.2264 15.8145 73.2264 15.8145 73.2264 15.8146C73.2264 15.8147 73.2264 15.8148 73.2264 15.8148C73.2264 15.8149 73.2264 15.815 73.2264 15.8151C73.2264 15.8152 73.2264 15.8152 73.2264 15.8153C73.2264 15.8154 73.2264 15.8155 73.2264 15.8155C73.2264 15.8156 73.2264 15.8157 73.2264 15.8158C73.2264 15.8159 73.2264 15.8159 73.2264 15.816C73.2264 15.8161 73.2264 15.8162 73.2264 15.8162C73.2264 15.8163 73.2264 15.8164 73.2264 15.8165C73.2264 15.8166 73.2264 15.8166 73.2264 15.8167C73.2264 15.8168 73.2264 15.8169 73.2264 15.817C73.2264 15.817 73.2264 15.8171 73.2264 15.8172C73.2264 15.8173 73.2264 15.8173 73.2264 15.8174C73.2264 15.8175 73.2264 15.8176 73.2264 15.8177C73.2264 15.8177 73.2264 15.8178 73.2264 15.8179C73.2264 15.818 73.2264 15.818 73.2264 15.8181C73.2264 15.8182 73.2264 15.8183 73.2264 15.8184C73.2264 15.8184 73.2264 15.8185 73.2264 15.8186C73.2264 15.8187 73.2264 15.8187 73.2264 15.8188C73.2264 15.8189 73.2264 15.819 73.2264 15.8191C73.2264 15.8191 73.2264 15.8192 73.2264 15.8193C73.2264 15.8194 73.2264 15.8195 73.2264 15.8195C73.2264 15.8196 73.2264 15.8197 73.2264 15.8198C73.2264 15.8198 73.2264 15.8199 73.2264 15.82H75.2264C75.2264 15.8199 75.2264 15.8198 75.2264 15.8198C75.2264 15.8197 75.2264 15.8196 75.2264 15.8195C75.2264 15.8195 75.2264 15.8194 75.2264 15.8193C75.2264 15.8192 75.2264 15.8191 75.2264 15.8191C75.2264 15.819 75.2264 15.8189 75.2264 15.8188C75.2264 15.8187 75.2264 15.8187 75.2264 15.8186C75.2264 15.8185 75.2264 15.8184 75.2264 15.8184C75.2264 15.8183 75.2264 15.8182 75.2264 15.8181C75.2264 15.818 75.2264 15.818 75.2264 15.8179C75.2264 15.8178 75.2264 15.8177 75.2264 15.8177C75.2264 15.8176 75.2264 15.8175 75.2264 15.8174C75.2264 15.8173 75.2264 15.8173 75.2264 15.8172C75.2264 15.8171 75.2264 15.817 75.2264 15.817C75.2264 15.8169 75.2264 15.8168 75.2264 15.8167C75.2264 15.8166 75.2264 15.8166 75.2264 15.8165C75.2264 15.8164 75.2264 15.8163 75.2264 15.8162C75.2264 15.8162 75.2264 15.8161 75.2264 15.816C75.2264 15.8159 75.2264 15.8159 75.2264 15.8158C75.2264 15.8157 75.2264 15.8156 75.2264 15.8155C75.2264 15.8155 75.2264 15.8154 75.2264 15.8153C75.2264 15.8152 75.2264 15.8152 75.2264 15.8151C75.2264 15.815 75.2264 15.8149 75.2264 15.8148C75.2264 15.8148 75.2264 15.8147 75.2264 15.8146C75.2264 15.8145 75.2264 15.8145 75.2264 15.8144C75.2264 15.8143 75.2264 15.8142 75.2264 15.8141C75.2264 15.8141 75.2264 15.814 75.2264 15.8139C75.2264 15.8138 75.2264 15.8137 75.2264 15.8137C75.2264 15.8136 75.2264 15.8135 75.2264 15.8134C75.2264 15.8134 75.2264 15.8133 75.2264 15.8132C75.2264 15.8131 75.2264 15.813 75.2264 15.813C75.2264 15.8129 75.2264 15.8128 75.2264 15.8127C75.2264 15.8127 75.2264 15.8126 75.2264 15.8125C75.2264 15.8124 75.2264 15.8123 75.2264 15.8123C75.2264 15.8122 75.2264 15.8121 75.2264 15.812C75.2264 15.812 75.2264 15.8119 75.2264 15.8118C75.2264 15.8117 75.2264 15.8116 75.2264 15.8116C75.2264 15.8115 75.2264 15.8114 75.2264 15.8113C75.2264 15.8112 75.2264 15.8112 75.2264 15.8111C75.2264 15.811 75.2264 15.8109 75.2264 15.8109C75.2264 15.8108 75.2264 15.8107 75.2264 15.8106C75.2264 15.8105 75.2264 15.8105 75.2264 15.8104C75.2264 15.8103 75.2264 15.8102 75.2264 15.8102C75.2264 15.8101 75.2264 15.81 75.2264 15.8099C75.2264 15.8098 75.2264 15.8098 75.2264 15.8097C75.2264 15.8096 75.2264 15.8095 75.2264 15.8095C75.2264 15.8094 75.2264 15.8093 75.2264 15.8092C75.2264 15.8091 75.2264 15.8091 75.2264 15.809C75.2264 15.8089 75.2264 15.8088 75.2264 15.8087C75.2264 15.8087 75.2264 15.8086 75.2264 15.8085C75.2264 15.8084 75.2264 15.8084 75.2264 15.8083C75.2264 15.8082 75.2264 15.8081 75.2264 15.808C75.2264 15.808 75.2264 15.8079 75.2264 15.8078C75.2264 15.8077 75.2264 15.8077 75.2264 15.8076C75.2264 15.8075 75.2264 15.8074 75.2264 15.8073C75.2264 15.8073 75.2264 15.8072 75.2264 15.8071C75.2264 15.807 75.2264 15.807 75.2264 15.8069C75.2264 15.8068 75.2264 15.8067 75.2264 15.8066C75.2264 15.8066 75.2264 15.8065 75.2264 15.8064C75.2264 15.8063 75.2264 15.8062 75.2264 15.8062C75.2264 15.8061 75.2264 15.806 75.2264 15.8059C75.2264 15.8059 75.2264 15.8058 75.2264 15.8057C75.2264 15.8056 75.2264 15.8055 75.2264 15.8055C75.2264 15.8054 75.2264 15.8053 75.2264 15.8052C75.2264 15.8052 75.2264 15.8051 75.2264 15.805C75.2264 15.8049 75.2264 15.8048 75.2264 15.8048C75.2264 15.8047 75.2264 15.8046 75.2264 15.8045C75.2264 15.8045 75.2264 15.8044 75.2264 15.8043C75.2264 15.8042 75.2264 15.8041 75.2264 15.8041C75.2264 15.804 75.2264 15.8039 75.2264 15.8038C75.2264 15.8038 75.2264 15.8037 75.2264 15.8036C75.2264 15.8035 75.2264 15.8034 75.2264 15.8034C75.2264 15.8033 75.2264 15.8032 75.2264 15.8031C75.2264 15.803 75.2264 15.803 75.2264 15.8029C75.2264 15.8028 75.2264 15.8027 75.2264 15.8027C75.2264 15.8026 75.2264 15.8025 75.2264 15.8024C75.2264 15.8023 75.2264 15.8023 75.2264 15.8022C75.2264 15.8021 75.2264 15.802 75.2264 15.802C75.2264 15.8019 75.2264 15.8018 75.2264 15.8017C75.2264 15.8016 75.2264 15.8016 75.2264 15.8015C75.2264 15.8014 75.2264 15.8013 75.2264 15.8012C75.2264 15.8012 75.2264 15.8011 75.2264 15.801C75.2264 15.8009 75.2264 15.8009 75.2264 15.8008C75.2264 15.8007 75.2264 15.8006 75.2264 15.8005C75.2264 15.8005 75.2264 15.8004 75.2264 15.8003C75.2264 15.8002 75.2264 15.8002 75.2264 15.8001C75.2264 15.8 75.2264 15.7999 75.2264 15.7998C75.2264 15.7998 75.2264 15.7997 75.2264 15.7996C75.2264 15.7995 75.2264 15.7995 75.2264 15.7994C75.2264 15.7993 75.2264 15.7992 75.2264 15.7991C75.2264 15.7991 75.2264 15.799 75.2264 15.7989C75.2264 15.7988 75.2264 15.7987 75.2264 15.7987C75.2264 15.7986 75.2264 15.7985 75.2264 15.7984C75.2264 15.7984 75.2264 15.7983 75.2264 15.7982C75.2264 15.7981 75.2264 15.798 75.2264 15.798C75.2264 15.7979 75.2264 15.7978 75.2264 15.7977C75.2264 15.7977 75.2264 15.7976 75.2264 15.7975C75.2264 15.7974 75.2264 15.7973 75.2264 15.7973C75.2264 15.7972 75.2264 15.7971 75.2264 15.797C75.2264 15.797 75.2264 15.7969 75.2264 15.7968C75.2264 15.7967 75.2264 15.7966 75.2264 15.7966C75.2264 15.7965 75.2264 15.7964 75.2264 15.7963C75.2264 15.7962 75.2264 15.7962 75.2264 15.7961C75.2264 15.796 75.2264 15.7959 75.2264 15.7959C75.2264 15.7958 75.2264 15.7957 75.2264 15.7956C75.2264 15.7955 75.2264 15.7955 75.2264 15.7954C75.2264 15.7953 75.2264 15.7952 75.2264 15.7952C75.2264 15.7951 75.2264 15.795 75.2264 15.7949C75.2264 15.7948 75.2264 15.7948 75.2264 15.7947C75.2264 15.7946 75.2264 15.7945 75.2264 15.7945C75.2264 15.7944 75.2264 15.7943 75.2264 15.7942C75.2264 15.7941 75.2264 15.7941 75.2264 15.794C75.2264 15.7939 75.2264 15.7938 75.2264 15.7937C75.2264 15.7937 75.2264 15.7936 75.2264 15.7935C75.2264 15.7934 75.2264 15.7934 75.2264 15.7933C75.2264 15.7932 75.2264 15.7931 75.2264 15.793C75.2264 15.793 75.2264 15.7929 75.2264 15.7928C75.2264 15.7927 75.2264 15.7927 75.2264 15.7926C75.2264 15.7925 75.2264 15.7924 75.2264 15.7923C75.2264 15.7923 75.2264 15.7922 75.2264 15.7921C75.2264 15.792 75.2264 15.792 75.2264 15.7919C75.2264 15.7918 75.2264 15.7917 75.2264 15.7916C75.2264 15.7916 75.2264 15.7915 75.2264 15.7914C75.2264 15.7913 75.2264 15.7912 75.2264 15.7912C75.2264 15.7911 75.2264 15.791 75.2264 15.7909C75.2264 15.7909 75.2264 15.7908 75.2264 15.7907C75.2264 15.7906 75.2264 15.7905 75.2264 15.7905C75.2264 15.7904 75.2264 15.7903 75.2264 15.7902C75.2264 15.7902 75.2264 15.7901 75.2264 15.79C75.2264 15.7899 75.2264 15.7898 75.2264 15.7898C75.2264 15.7897 75.2264 15.7896 75.2264 15.7895C75.2264 15.7895 75.2264 15.7894 75.2264 15.7893C75.2264 15.7892 75.2264 15.7891 75.2264 15.7891C75.2264 15.789 75.2264 15.7889 75.2264 15.7888C75.2264 15.7887 75.2264 15.7887 75.2264 15.7886C75.2264 15.7885 75.2264 15.7884 75.2264 15.7884C75.2264 15.7883 75.2264 15.7882 75.2264 15.7881C75.2264 15.788 75.2264 15.788 75.2264 15.7879C75.2264 15.7878 75.2264 15.7877 75.2264 15.7877C75.2264 15.7876 75.2264 15.7875 75.2264 15.7874C75.2264 15.7873 75.2264 15.7873 75.2264 15.7872C75.2264 15.7871 75.2264 15.787 75.2264 15.787C75.2264 15.7869 75.2264 15.7868 75.2264 15.7867C75.2264 15.7866 75.2264 15.7866 75.2264 15.7865C75.2264 15.7864 75.2264 15.7863 75.2264 15.7863C75.2264 15.7862 75.2264 15.7861 75.2264 15.786C75.2264 15.7859 75.2264 15.7859 75.2264 15.7858C75.2264 15.7857 75.2264 15.7856 75.2264 15.7855C75.2264 15.7855 75.2264 15.7854 75.2264 15.7853C75.2264 15.7852 75.2264 15.7852 75.2264 15.7851C75.2264 15.785 75.2264 15.7849 75.2264 15.7848C75.2264 15.7848 75.2264 15.7847 75.2264 15.7846C75.2264 15.7845 75.2264 15.7845 75.2264 15.7844C75.2264 15.7843 75.2264 15.7842 75.2264 15.7841C75.2264 15.7841 75.2264 15.784 75.2264 15.7839C75.2264 15.7838 75.2264 15.7837 75.2264 15.7837C75.2264 15.7836 75.2264 15.7835 75.2264 15.7834C75.2264 15.7834 75.2264 15.7833 75.2264 15.7832C75.2264 15.7831 75.2264 15.783 75.2264 15.783C75.2264 15.7829 75.2264 15.7828 75.2264 15.7827C75.2264 15.7827 75.2264 15.7826 75.2264 15.7825C75.2264 15.7824 75.2264 15.7823 75.2264 15.7823C75.2264 15.7822 75.2264 15.7821 75.2264 15.782C75.2264 15.782 75.2264 15.7819 75.2264 15.7818C75.2264 15.7817 75.2264 15.7816 75.2264 15.7816C75.2264 15.7815 75.2264 15.7814 75.2264 15.7813C75.2264 15.7812 75.2264 15.7812 75.2264 15.7811C75.2264 15.781 75.2264 15.7809 75.2264 15.7809C75.2264 15.7808 75.2264 15.7807 75.2264 15.7806C75.2264 15.7805 75.2264 15.7805 75.2264 15.7804C75.2264 15.7803 75.2264 15.7802 75.2264 15.7802C75.2264 15.7801 75.2264 15.78 75.2264 15.7799C75.2264 15.7798 75.2264 15.7798 75.2264 15.7797C75.2264 15.7796 75.2264 15.7795 75.2264 15.7795C75.2264 15.7794 75.2264 15.7793 75.2264 15.7792C75.2264 15.7791 75.2264 15.7791 75.2264 15.779C75.2264 15.7789 75.2264 15.7788 75.2264 15.7787C75.2264 15.7787 75.2264 15.7786 75.2264 15.7785C75.2264 15.7784 75.2264 15.7784 75.2264 15.7783C75.2264 15.7782 75.2264 15.7781 75.2264 15.778C75.2264 15.778 75.2264 15.7779 75.2264 15.7778C75.2264 15.7777 75.2264 15.7777 75.2264 15.7776C75.2264 15.7775 75.2264 15.7774 75.2264 15.7773C75.2264 15.7773 75.2264 15.7772 75.2264 15.7771C75.2264 15.777 75.2264 15.777 75.2264 15.7769C75.2264 15.7768 75.2264 15.7767 75.2264 15.7766C75.2264 15.7766 75.2264 15.7765 75.2264 15.7764C75.2264 15.7763 75.2264 15.7762 75.2264 15.7762C75.2264 15.7761 75.2264 15.776 75.2264 15.7759C75.2264 15.7759 75.2264 15.7758 75.2264 15.7757C75.2264 15.7756 75.2264 15.7755 75.2264 15.7755C75.2264 15.7754 75.2264 15.7753 75.2264 15.7752C75.2264 15.7752 75.2264 15.7751 75.2264 15.775C75.2264 15.7749 75.2264 15.7748 75.2264 15.7748C75.2264 15.7747 75.2264 15.7746 75.2264 15.7745C75.2264 15.7745 75.2264 15.7744 75.2264 15.7743C75.2264 15.7742 75.2264 15.7741 75.2264 15.7741C75.2264 15.774 75.2264 15.7739 75.2264 15.7738C75.2264 15.7737 75.2264 15.7737 75.2264 15.7736C75.2264 15.7735 75.2264 15.7734 75.2264 15.7734C75.2264 15.7733 75.2264 15.7732 75.2264 15.7731C75.2264 15.773 75.2264 15.773 75.2264 15.7729C75.2264 15.7728 75.2264 15.7727 75.2264 15.7727C75.2264 15.7726 75.2264 15.7725 75.2264 15.7724C75.2264 15.7723 75.2264 15.7723 75.2264 15.7722C75.2264 15.7721 75.2264 15.772 75.2264 15.772C75.2264 15.7719 75.2264 15.7718 75.2264 15.7717C75.2264 15.7716 75.2264 15.7716 75.2264 15.7715C75.2264 15.7714 75.2264 15.7713 75.2264 15.7712C75.2264 15.7712 75.2264 15.7711 75.2264 15.771C75.2264 15.7709 75.2264 15.7709 75.2264 15.7708C75.2264 15.7707 75.2264 15.7706 75.2264 15.7705C75.2264 15.7705 75.2264 15.7704 75.2264 15.7703C75.2264 15.7702 75.2264 15.7702 75.2264 15.7701C75.2264 15.77 75.2264 15.7699 75.2264 15.7698C75.2264 15.7698 75.2264 15.7697 75.2264 15.7696C75.2264 15.7695 75.2264 15.7695 75.2264 15.7694C75.2264 15.7693 75.2264 15.7692 75.2264 15.7691C75.2264 15.7691 75.2264 15.769 75.2264 15.7689C75.2264 15.7688 75.2264 15.7688 75.2264 15.7687C75.2264 15.7686 75.2264 15.7685 75.2264 15.7684C75.2264 15.7684 75.2264 15.7683 75.2264 15.7682C75.2264 15.7681 75.2264 15.768 75.2264 15.768C75.2264 15.7679 75.2264 15.7678 75.2264 15.7677C75.2264 15.7677 75.2264 15.7676 75.2264 15.7675C75.2264 15.7674 75.2264 15.7673 75.2264 15.7673C75.2264 15.7672 75.2264 15.7671 75.2264 15.767C75.2264 15.767 75.2264 15.7669 75.2264 15.7668C75.2264 15.7667 75.2264 15.7666 75.2264 15.7666C75.2264 15.7665 75.2264 15.7664 75.2264 15.7663C75.2264 15.7662 75.2264 15.7662 75.2264 15.7661C75.2264 15.766 75.2264 15.7659 75.2264 15.7659C75.2264 15.7658 75.2264 15.7657 75.2264 15.7656C75.2264 15.7655 75.2264 15.7655 75.2264 15.7654C75.2264 15.7653 75.2264 15.7652 75.2264 15.7652C75.2264 15.7651 75.2264 15.765 75.2264 15.7649C75.2264 15.7648 75.2264 15.7648 75.2264 15.7647C75.2264 15.7646 75.2264 15.7645 75.2264 15.7645C75.2264 15.7644 75.2264 15.7643 75.2264 15.7642C75.2264 15.7641 75.2264 15.7641 75.2264 15.764C75.2264 15.7639 75.2264 15.7638 75.2264 15.7638C75.2264 15.7637 75.2264 15.7636 75.2264 15.7635C75.2264 15.7634 75.2264 15.7634 75.2264 15.7633C75.2264 15.7632 75.2264 15.7631 75.2264 15.763C75.2264 15.763 75.2264 15.7629 75.2264 15.7628C75.2264 15.7627 75.2264 15.7627 75.2264 15.7626C75.2264 15.7625 75.2264 15.7624 75.2264 15.7623C75.2264 15.7623 75.2264 15.7622 75.2264 15.7621C75.2264 15.762 75.2264 15.762 75.2264 15.7619C75.2264 15.7618 75.2264 15.7617 75.2264 15.7616C75.2264 15.7616 75.2264 15.7615 75.2264 15.7614C75.2264 15.7613 75.2264 15.7612 75.2264 15.7612C75.2264 15.7611 75.2264 15.761 75.2264 15.7609C75.2264 15.7609 75.2264 15.7608 75.2264 15.7607C75.2264 15.7606 75.2264 15.7605 75.2264 15.7605C75.2264 15.7604 75.2264 15.7603 75.2264 15.7602C75.2264 15.7602 75.2264 15.7601 75.2264 15.76C75.2264 15.7599 75.2264 15.7598 75.2264 15.7598C75.2264 15.7597 75.2264 15.7596 75.2264 15.7595C75.2264 15.7595 75.2264 15.7594 75.2264 15.7593C75.2264 15.7592 75.2264 15.7591 75.2264 15.7591C75.2264 15.759 75.2264 15.7589 75.2264 15.7588C75.2264 15.7587 75.2264 15.7587 75.2264 15.7586C75.2264 15.7585 75.2264 15.7584 75.2264 15.7584C75.2264 15.7583 75.2264 15.7582 75.2264 15.7581C75.2264 15.758 75.2264 15.758 75.2264 15.7579C75.2264 15.7578 75.2264 15.7577 75.2264 15.7577C75.2264 15.7576 75.2264 15.7575 75.2264 15.7574C75.2264 15.7573 75.2264 15.7573 75.2264 15.7572C75.2264 15.7571 75.2264 15.757 75.2264 15.757C75.2264 15.7569 75.2264 15.7568 75.2264 15.7567C75.2264 15.7566 75.2264 15.7566 75.2264 15.7565C75.2264 15.7564 75.2264 15.7563 75.2264 15.7562C75.2264 15.7562 75.2264 15.7561 75.2264 15.756C75.2264 15.7559 75.2264 15.7559 75.2264 15.7558C75.2264 15.7557 75.2264 15.7556 75.2264 15.7555C75.2264 15.7555 75.2264 15.7554 75.2264 15.7553C75.2264 15.7552 75.2264 15.7552 75.2264 15.7551C75.2264 15.755 75.2264 15.7549 75.2264 15.7548C75.2264 15.7548 75.2264 15.7547 75.2264 15.7546C75.2264 15.7545 75.2264 15.7545 75.2264 15.7544C75.2264 15.7543 75.2264 15.7542 75.2264 15.7541C75.2264 15.7541 75.2264 15.754 75.2264 15.7539C75.2264 15.7538 75.2264 15.7537 75.2264 15.7537C75.2264 15.7536 75.2264 15.7535 75.2264 15.7534C75.2264 15.7534 75.2264 15.7533 75.2264 15.7532C75.2264 15.7531 75.2264 15.753 75.2264 15.753C75.2264 15.7529 75.2264 15.7528 75.2264 15.7527C75.2264 15.7527 75.2264 15.7526 75.2264 15.7525C75.2264 15.7524 75.2264 15.7523 75.2264 15.7523C75.2264 15.7522 75.2264 15.7521 75.2264 15.752C75.2264 15.752 75.2264 15.7519 75.2264 15.7518C75.2264 15.7517 75.2264 15.7516 75.2264 15.7516C75.2264 15.7515 75.2264 15.7514 75.2264 15.7513C75.2264 15.7512 75.2264 15.7512 75.2264 15.7511C75.2264 15.751 75.2264 15.7509 75.2264 15.7509C75.2264 15.7508 75.2264 15.7507 75.2264 15.7506C75.2264 15.7505 75.2264 15.7505 75.2264 15.7504C75.2264 15.7503 75.2264 15.7502 75.2264 15.7502C75.2264 15.7501 75.2264 15.75 75.2264 15.7499C75.2264 15.7498 75.2264 15.7498 75.2264 15.7497C75.2264 15.7496 75.2264 15.7495 75.2264 15.7495C75.2264 15.7494 75.2264 15.7493 75.2264 15.7492C75.2264 15.7491 75.2264 15.7491 75.2264 15.749C75.2264 15.7489 75.2264 15.7488 75.2264 15.7487C75.2264 15.7487 75.2264 15.7486 75.2264 15.7485C75.2264 15.7484 75.2264 15.7484 75.2264 15.7483C75.2264 15.7482 75.2264 15.7481 75.2264 15.748C75.2264 15.748 75.2264 15.7479 75.2264 15.7478C75.2264 15.7477 75.2264 15.7477 75.2264 15.7476C75.2264 15.7475 75.2264 15.7474 75.2264 15.7473C75.2264 15.7473 75.2264 15.7472 75.2264 15.7471C75.2264 15.747 75.2264 15.747 75.2264 15.7469C75.2264 15.7468 75.2264 15.7467 75.2264 15.7466C75.2264 15.7466 75.2264 15.7465 75.2264 15.7464C75.2264 15.7463 75.2264 15.7463 75.2264 15.7462C75.2264 15.7461 75.2264 15.746 75.2264 15.7459C75.2264 15.7459 75.2264 15.7458 75.2264 15.7457C75.2264 15.7456 75.2264 15.7455 75.2264 15.7455C75.2264 15.7454 75.2264 15.7453 75.2264 15.7452C75.2264 15.7452 75.2264 15.7451 75.2264 15.745C75.2264 15.7449 75.2264 15.7448 75.2264 15.7448C75.2264 15.7447 75.2264 15.7446 75.2264 15.7445C75.2264 15.7445 75.2264 15.7444 75.2264 15.7443C75.2264 15.7442 75.2264 15.7441 75.2264 15.7441C75.2264 15.744 75.2264 15.7439 75.2264 15.7438C75.2264 15.7437 75.2264 15.7437 75.2264 15.7436C75.2264 15.7435 75.2264 15.7434 75.2264 15.7434C75.2264 15.7433 75.2264 15.7432 75.2264 15.7431C75.2264 15.743 75.2264 15.743 75.2264 15.7429C75.2264 15.7428 75.2264 15.7427 75.2264 15.7427C75.2264 15.7426 75.2264 15.7425 75.2264 15.7424C75.2264 15.7423 75.2264 15.7423 75.2264 15.7422C75.2264 15.7421 75.2264 15.742 75.2264 15.742C75.2264 15.7419 75.2264 15.7418 75.2264 15.7417C75.2264 15.7416 75.2264 15.7416 75.2264 15.7415C75.2264 15.7414 75.2264 15.7413 75.2264 15.7413C75.2264 15.7412 75.2264 15.7411 75.2264 15.741C75.2264 15.7409 75.2264 15.7409 75.2264 15.7408C75.2264 15.7407 75.2264 15.7406 75.2264 15.7405C75.2264 15.7405 75.2264 15.7404 75.2264 15.7403C75.2264 15.7402 75.2264 15.7402 75.2264 15.7401C75.2264 15.74 75.2264 15.7399 75.2264 15.7398C75.2264 15.7398 75.2264 15.7397 75.2264 15.7396C75.2264 15.7395 75.2264 15.7395 75.2264 15.7394C75.2264 15.7393 75.2264 15.7392 75.2264 15.7391C75.2264 15.7391 75.2264 15.739 75.2264 15.7389C75.2264 15.7388 75.2264 15.7387 75.2264 15.7387C75.2264 15.7386 75.2264 15.7385 75.2264 15.7384C75.2264 15.7384 75.2264 15.7383 75.2264 15.7382C75.2264 15.7381 75.2264 15.738 75.2264 15.738C75.2264 15.7379 75.2264 15.7378 75.2264 15.7377C75.2264 15.7377 75.2264 15.7376 75.2264 15.7375C75.2264 15.7374 75.2264 15.7373 75.2264 15.7373C75.2264 15.7372 75.2264 15.7371 75.2264 15.737C75.2264 15.737 75.2264 15.7369 75.2264 15.7368C75.2264 15.7367 75.2264 15.7366 75.2264 15.7366C75.2264 15.7365 75.2264 15.7364 75.2264 15.7363C75.2264 15.7362 75.2264 15.7362 75.2264 15.7361C75.2264 15.736 75.2264 15.7359 75.2264 15.7359C75.2264 15.7358 75.2264 15.7357 75.2264 15.7356C75.2264 15.7355 75.2264 15.7355 75.2264 15.7354C75.2264 15.7353 75.2264 15.7352 75.2264 15.7352C75.2264 15.7351 75.2264 15.735 75.2264 15.7349C75.2264 15.7348 75.2264 15.7348 75.2264 15.7347C75.2264 15.7346 75.2264 15.7345 75.2264 15.7345C75.2264 15.7344 75.2264 15.7343 75.2264 15.7342C75.2264 15.7341 75.2264 15.7341 75.2264 15.734C75.2264 15.7339 75.2264 15.7338 75.2264 15.7337C75.2264 15.7337 75.2264 15.7336 75.2264 15.7335C75.2264 15.7334 75.2264 15.7334 75.2264 15.7333C75.2264 15.7332 75.2264 15.7331 75.2264 15.733C75.2264 15.733 75.2264 15.7329 75.2264 15.7328C75.2264 15.7327 75.2264 15.7327 75.2264 15.7326C75.2264 15.7325 75.2264 15.7324 75.2264 15.7323C75.2264 15.7323 75.2264 15.7322 75.2264 15.7321C75.2264 15.732 75.2264 15.732 75.2264 15.7319C75.2264 15.7318 75.2264 15.7317 75.2264 15.7316C75.2264 15.7316 75.2264 15.7315 75.2264 15.7314C75.2264 15.7313 75.2264 15.7312 75.2264 15.7312C75.2264 15.7311 75.2264 15.731 75.2264 15.7309C75.2264 15.7309 75.2264 15.7308 75.2264 15.7307C75.2264 15.7306 75.2264 15.7305 75.2264 15.7305C75.2264 15.7304 75.2264 15.7303 75.2264 15.7302C75.2264 15.7302 75.2264 15.7301 75.2264 15.73C75.2264 15.7299 75.2264 15.7298 75.2264 15.7298C75.2264 15.7297 75.2264 15.7296 75.2264 15.7295C75.2264 15.7295 75.2264 15.7294 75.2264 15.7293C75.2264 15.7292 75.2264 15.7291 75.2264 15.7291C75.2264 15.729 75.2264 15.7289 75.2264 15.7288C75.2264 15.7288 75.2264 15.7287 75.2264 15.7286C75.2264 15.7285 75.2264 15.7284 75.2264 15.7284C75.2264 15.7283 75.2264 15.7282 75.2264 15.7281C75.2264 15.728 75.2264 15.728 75.2264 15.7279C75.2264 15.7278 75.2264 15.7277 75.2264 15.7277C75.2264 15.7276 75.2264 15.7275 75.2264 15.7274C75.2264 15.7273 75.2264 15.7273 75.2264 15.7272C75.2264 15.7271 75.2264 15.727 75.2264 15.727C75.2264 15.7269 75.2264 15.7268 75.2264 15.7267C75.2264 15.7266 75.2264 15.7266 75.2264 15.7265C75.2264 15.7264 75.2264 15.7263 75.2264 15.7262C75.2264 15.7262 75.2264 15.7261 75.2264 15.726C75.2264 15.7259 75.2264 15.7259 75.2264 15.7258C75.2264 15.7257 75.2264 15.7256 75.2264 15.7255C75.2264 15.7255 75.2264 15.7254 75.2264 15.7253C75.2264 15.7252 75.2264 15.7252 75.2264 15.7251C75.2264 15.725 75.2264 15.7249 75.2264 15.7248C75.2264 15.7248 75.2264 15.7247 75.2264 15.7246C75.2264 15.7245 75.2264 15.7245 75.2264 15.7244C75.2264 15.7243 75.2264 15.7242 75.2264 15.7241C75.2264 15.7241 75.2264 15.724 75.2264 15.7239C75.2264 15.7238 75.2264 15.7238 75.2264 15.7237C75.2264 15.7236 75.2264 15.7235 75.2264 15.7234C75.2264 15.7234 75.2264 15.7233 75.2264 15.7232C75.2264 15.7231 75.2264 15.723 75.2264 15.723C75.2264 15.7229 75.2264 15.7228 75.2264 15.7227C75.2264 15.7227 75.2264 15.7226 75.2264 15.7225C75.2264 15.7224 75.2264 15.7223 75.2264 15.7223C75.2264 15.7222 75.2264 15.7221 75.2264 15.722C75.2264 15.722 75.2264 15.7219 75.2264 15.7218C75.2264 15.7217 75.2264 15.7216 75.2264 15.7216C75.2264 15.7215 75.2264 15.7214 75.2264 15.7213C75.2264 15.7212 75.2264 15.7212 75.2264 15.7211C75.2264 15.721 75.2264 15.7209 75.2264 15.7209C75.2264 15.7208 75.2264 15.7207 75.2264 15.7206C75.2264 15.7205 75.2264 15.7205 75.2264 15.7204C75.2264 15.7203 75.2264 15.7202 75.2264 15.7202C75.2264 15.7201 75.2264 15.72 75.2264 15.7199C75.2264 15.7198 75.2264 15.7198 75.2264 15.7197C75.2264 15.7196 75.2264 15.7195 75.2264 15.7195C75.2264 15.7194 75.2264 15.7193 75.2264 15.7192C75.2264 15.7191 75.2264 15.7191 75.2264 15.719C75.2264 15.7189 75.2264 15.7188 75.2264 15.7188C75.2264 15.7187 75.2264 15.7186 75.2264 15.7185C75.2264 15.7184 75.2264 15.7184 75.2264 15.7183C75.2264 15.7182 75.2264 15.7181 75.2264 15.718C75.2264 15.718 75.2264 15.7179 75.2264 15.7178C75.2264 15.7177 75.2264 15.7177 75.2264 15.7176C75.2264 15.7175 75.2264 15.7174 75.2264 15.7173C75.2264 15.7173 75.2264 15.7172 75.2264 15.7171C75.2264 15.717 75.2264 15.717 75.2264 15.7169C75.2264 15.7168 75.2264 15.7167 75.2264 15.7166C75.2264 15.7166 75.2264 15.7165 75.2264 15.7164C75.2264 15.7163 75.2264 15.7162 75.2264 15.7162C75.2264 15.7161 75.2264 15.716 75.2264 15.7159C75.2264 15.7159 75.2264 15.7158 75.2264 15.7157C75.2264 15.7156 75.2264 15.7155 75.2264 15.7155C75.2264 15.7154 75.2264 15.7153 75.2264 15.7152C75.2264 15.7152 75.2264 15.7151 75.2264 15.715C75.2264 15.7149 75.2264 15.7148 75.2264 15.7148C75.2264 15.7147 75.2264 15.7146 75.2264 15.7145C75.2264 15.7145 75.2264 15.7144 75.2264 15.7143C75.2264 15.7142 75.2264 15.7141 75.2264 15.7141C75.2264 15.714 75.2264 15.7139 75.2264 15.7138C75.2264 15.7137 75.2264 15.7137 75.2264 15.7136C75.2264 15.7135 75.2264 15.7134 75.2264 15.7134C75.2264 15.7133 75.2264 15.7132 75.2264 15.7131C75.2264 15.713 75.2264 15.713 75.2264 15.7129C75.2264 15.7128 75.2264 15.7127 75.2264 15.7127C75.2264 15.7126 75.2264 15.7125 75.2264 15.7124C75.2264 15.7123 75.2264 15.7123 75.2264 15.7122C75.2264 15.7121 75.2264 15.712 75.2264 15.712C75.2264 15.7119 75.2264 15.7118 75.2264 15.7117C75.2264 15.7116 75.2264 15.7116 75.2264 15.7115C75.2264 15.7114 75.2264 15.7113 75.2264 15.7113C75.2264 15.7112 75.2264 15.7111 75.2264 15.711C75.2264 15.7109 75.2264 15.7109 75.2264 15.7108C75.2264 15.7107 75.2264 15.7106 75.2264 15.7105C75.2264 15.7105 75.2264 15.7104 75.2264 15.7103C75.2264 15.7102 75.2264 15.7102 75.2264 15.7101C75.2264 15.71 75.2264 15.7099 75.2264 15.7098C75.2264 15.7098 75.2264 15.7097 75.2264 15.7096C75.2264 15.7095 75.2264 15.7095 75.2264 15.7094C75.2264 15.7093 75.2264 15.7092 75.2264 15.7091C75.2264 15.7091 75.2264 15.709 75.2264 15.7089C75.2264 15.7088 75.2264 15.7087 75.2264 15.7087C75.2264 15.7086 75.2264 15.7085 75.2264 15.7084C75.2264 15.7084 75.2264 15.7083 75.2264 15.7082C75.2264 15.7081 75.2264 15.708 75.2264 15.708C75.2264 15.7079 75.2264 15.7078 75.2264 15.7077C75.2264 15.7077 75.2264 15.7076 75.2264 15.7075C75.2264 15.7074 75.2264 15.7073 75.2264 15.7073C75.2264 15.7072 75.2264 15.7071 75.2264 15.707C75.2264 15.707 75.2264 15.7069 75.2264 15.7068C75.2264 15.7067 75.2264 15.7066 75.2264 15.7066C75.2264 15.7065 75.2264 15.7064 75.2264 15.7063C75.2264 15.7063 75.2264 15.7062 75.2264 15.7061C75.2264 15.706 75.2264 15.7059 75.2264 15.7059C75.2264 15.7058 75.2264 15.7057 75.2264 15.7056C75.2264 15.7055 75.2264 15.7055 75.2264 15.7054C75.2264 15.7053 75.2264 15.7052 75.2264 15.7052C75.2264 15.7051 75.2264 15.705 75.2264 15.7049C75.2264 15.7048 75.2264 15.7048 75.2264 15.7047C75.2264 15.7046 75.2264 15.7045 75.2264 15.7045C75.2264 15.7044 75.2264 15.7043 75.2264 15.7042C75.2264 15.7041 75.2264 15.7041 75.2264 15.704C75.2264 15.7039 75.2264 15.7038 75.2264 15.7037C75.2264 15.7037 75.2264 15.7036 75.2264 15.7035C75.2264 15.7034 75.2264 15.7034 75.2264 15.7033C75.2264 15.7032 75.2264 15.7031 75.2264 15.703C75.2264 15.703 75.2264 15.7029 75.2264 15.7028C75.2264 15.7027 75.2264 15.7027 75.2264 15.7026C75.2264 15.7025 75.2264 15.7024 75.2264 15.7023C75.2264 15.7023 75.2264 15.7022 75.2264 15.7021C75.2264 15.702 75.2264 15.702 75.2264 15.7019C75.2264 15.7018 75.2264 15.7017 75.2264 15.7016C75.2264 15.7016 75.2264 15.7015 75.2264 15.7014C75.2264 15.7013 75.2264 15.7013 75.2264 15.7012C75.2264 15.7011 75.2264 15.701 75.2264 15.7009C75.2264 15.7009 75.2264 15.7008 75.2264 15.7007C75.2264 15.7006 75.2264 15.7005 75.2264 15.7005C75.2264 15.7004 75.2264 15.7003 75.2264 15.7002C75.2264 15.7002 75.2264 15.7001 75.2264 15.7H73.2264ZM73.2264 15.82V22.48H75.2264V15.82H73.2264ZM73.9633 21.5152C73.8814 21.5376 73.7138 21.5707 73.4313 21.6092L73.7015 23.5908C74.0057 23.5493 74.278 23.5024 74.4895 23.4448L73.9633 21.5152ZM73.425 21.6101C73.1935 21.6431 72.9542 21.66 72.7064 21.66V23.66C73.0453 23.66 73.3793 23.6369 73.7078 23.5899L73.425 21.6101ZM72.7064 21.66C72.4574 21.66 72.2468 21.6429 72.0708 21.6136L71.742 23.5864C72.046 23.6371 72.3688 23.66 72.7064 23.66V21.66ZM72.0802 21.6152C71.9847 21.5984 71.9431 21.5725 71.9264 21.56L70.7264 23.16C71.0297 23.3875 71.3747 23.5216 71.7326 23.5848L72.0802 21.6152ZM71.9264 21.56C71.9111 21.5485 71.8837 21.5239 71.8526 21.4571L70.0402 22.3029C70.1957 22.6361 70.4217 22.9315 70.7264 23.16L71.9264 21.56ZM71.8827 21.5289C71.8595 21.467 71.8264 21.3239 71.8264 21.06H69.8264C69.8264 21.4627 69.8733 21.8663 70.0101 22.2311L71.8827 21.5289ZM71.8264 21.06V16.28H69.8264V21.06H71.8264ZM71.8264 16.28C71.8264 15.6612 71.6173 15.0095 71.0111 14.5947L69.8817 16.2453C69.8701 16.2373 69.8555 16.2249 69.8417 16.2081C69.828 16.1915 69.8202 16.177 69.8167 16.1692C69.8105 16.1552 69.8264 16.1822 69.8264 16.28H71.8264ZM71.0603 14.6306C70.6206 14.2886 70.1027 14.14 69.5664 14.14V16.14C69.7234 16.14 69.7922 16.178 69.8325 16.2094L71.0603 14.6306ZM69.5664 14.14C69.2178 14.14 68.8613 14.1979 68.5273 14.352L69.3655 16.168C69.3782 16.1621 69.435 16.14 69.5664 16.14V14.14ZM68.5874 14.3267C68.3846 14.4047 68.1929 14.4902 68.0208 14.5858L68.9921 16.3342C69.0599 16.2965 69.1615 16.2487 69.3054 16.1933L68.5874 14.3267ZM67.5064 15.46V22.48H69.5064V15.46H67.5064ZM68.2191 21.5222C68.1651 21.5384 68.0171 21.5702 67.7313 21.6092L68.0015 23.5908C68.3024 23.5498 68.5811 23.5016 68.7938 23.4378L68.2191 21.5222ZM67.725 21.6101C67.4956 21.6428 67.2497 21.66 66.9864 21.66V23.66C67.3365 23.66 67.6773 23.6372 68.0078 23.5899L67.725 21.6101ZM66.9864 21.66C66.7374 21.66 66.5268 21.6429 66.3508 21.6136L66.022 23.5864C66.326 23.6371 66.6488 23.66 66.9864 23.66V21.66ZM66.3602 21.6152C66.2647 21.5984 66.2231 21.5725 66.2064 21.56L65.0064 23.16C65.3097 23.3875 65.6547 23.5216 66.0126 23.5848L66.3602 21.6152ZM66.2064 21.56C66.1911 21.5485 66.1637 21.5239 66.1326 21.4571L64.3202 22.3029C64.4757 22.6361 64.7017 22.9315 65.0064 23.16L66.2064 21.56ZM66.1627 21.5289C66.1395 21.467 66.1064 21.3239 66.1064 21.06H64.1064C64.1064 21.4627 64.1533 21.8663 64.2901 22.2311L66.1627 21.5289ZM66.1064 21.06V15.02H64.1064V21.06H66.1064ZM66.1064 15.02C66.1064 14.7858 66.1552 14.7196 66.1504 14.7265L64.5024 13.5935C64.2043 14.027 64.1064 14.5342 64.1064 15.02H66.1064ZM66.1264 14.76C66.2108 14.6475 66.3414 14.5181 66.5399 14.3792L65.3929 12.7408C65.0581 12.9752 64.7621 13.2458 64.5264 13.56L66.1264 14.76ZM66.5431 14.377C66.8891 14.1328 67.3454 13.9143 67.9338 13.7378L67.3591 11.8222C66.6141 12.0457 65.9504 12.3472 65.3897 12.743L66.5431 14.377ZM67.9286 13.7394C68.5138 13.5672 69.1253 13.48 69.7664 13.48V11.48C68.9409 11.48 68.139 11.5928 67.3642 11.8206L67.9286 13.7394ZM86.9205 20.28L87.0688 21.2689L87.0883 21.266L87.1076 21.2623L86.9205 20.28ZM87.5405 20.08L88.055 20.9375L88.5405 20.6462V20.08H87.5405ZM87.5405 18.48H88.5405V17.3932L87.4574 17.4835L87.5405 18.48ZM86.1005 18.6L86.1717 19.5975L86.1835 19.5965L86.1005 18.6ZM85.1805 18.84L84.6948 17.9658L84.6948 17.9658L85.1805 18.84ZM85.1205 20.1L84.4655 20.8557L84.4922 20.8788L84.5205 20.9L85.1205 20.1ZM87.9805 12.7L87.7379 13.6702L87.743 13.6714L87.9805 12.7ZM89.5005 13.38L88.9046 14.1831L88.9191 14.1938L88.9339 14.204L89.5005 13.38ZM90.4805 14.52L89.5809 14.9569L89.586 14.9672L90.4805 14.52ZM90.5205 21.48L89.7706 20.8184L89.7679 20.8215L90.5205 21.48ZM89.8405 22.04L89.326 21.1825L89.8405 22.04ZM84.2605 22.62L84.0288 23.5928L84.034 23.594L84.2605 22.62ZM82.8005 22.02L82.2458 22.8521L82.252 22.8562L82.2583 22.8603L82.8005 22.02ZM81.8605 21L80.9718 21.4586L80.9776 21.4698L80.9837 21.4808L81.8605 21ZM82.3605 17.44L81.6905 16.6976L82.3605 17.44ZM84.9005 16.52L85.0046 17.5146L85.0067 17.5143L84.9005 16.52ZM87.5205 16.24L87.6267 17.2343L88.5205 17.1388V16.24H87.5205ZM87.0005 15.28L86.5391 16.1672L86.56 16.1781L86.5814 16.188L87.0005 15.28ZM84.0605 15.18L83.8435 14.2038H83.8435L84.0605 15.18ZM82.7605 15.58L82.1913 16.4022L82.6393 16.7124L83.1428 16.504L82.7605 15.58ZM82.3205 15.04L81.4167 15.4681L81.4213 15.4777L81.426 15.4872L82.3205 15.04ZM82.3805 13.44L81.6043 12.8094L81.5996 12.8153L82.3805 13.44ZM83.1605 12.9L82.8058 11.965L82.7882 11.9717L82.7708 11.979L83.1605 12.9ZM84.5205 12.58L84.3964 11.5877L84.3933 11.5881L84.5205 12.58ZM86.1805 21.34C86.465 21.34 86.762 21.315 87.0688 21.2689L86.7721 19.2911C86.5457 19.325 86.3492 19.34 86.1805 19.34V21.34ZM87.1076 21.2623C87.4235 21.2022 87.7689 21.1091 88.055 20.9375L87.026 19.2225C87.0447 19.2113 87.0355 19.2199 86.9785 19.2383C86.9244 19.2557 86.8445 19.2765 86.7334 19.2977L87.1076 21.2623ZM88.5405 20.08V18.48H86.5405V20.08H88.5405ZM87.4574 17.4835L86.0174 17.6035L86.1835 19.5965L87.6235 19.4765L87.4574 17.4835ZM86.0292 17.6025C85.5603 17.636 85.0998 17.7409 84.6948 17.9658L85.6661 19.7142C85.7411 19.6725 85.894 19.6173 86.1717 19.5975L86.0292 17.6025ZM84.6948 17.9658C84.4488 18.1025 84.2181 18.3003 84.053 18.5755C83.887 18.8522 83.8205 19.1519 83.8205 19.44H85.8205C85.8205 19.4614 85.814 19.5278 85.768 19.6045C85.7229 19.6797 85.6721 19.7108 85.6661 19.7142L84.6948 17.9658ZM83.8205 19.44C83.8205 19.9942 84.0445 20.4908 84.4655 20.8557L85.7754 19.3443C85.7737 19.3428 85.7908 19.3581 85.8058 19.3912C85.8208 19.4241 85.8205 19.4455 85.8205 19.44H83.8205ZM84.5205 20.9C85.0016 21.2608 85.6305 21.34 86.1805 21.34V19.34C85.9834 19.34 85.8498 19.3236 85.7663 19.3047C85.6805 19.2853 85.6818 19.271 85.7205 19.3L84.5205 20.9ZM86.0205 13.48C86.6737 13.48 87.2439 13.5466 87.7379 13.6701L88.223 11.7299C87.5437 11.56 86.8072 11.48 86.0205 11.48V13.48ZM87.743 13.6714C88.2389 13.7926 88.6175 13.9701 88.9046 14.1831L90.0963 12.5769C89.5568 12.1766 88.922 11.9007 88.2179 11.7286L87.743 13.6714ZM88.9339 14.204C89.2177 14.3991 89.4298 14.6456 89.581 14.9569L91.38 14.0831C91.0779 13.4611 90.6366 12.9476 90.067 12.556L88.9339 14.204ZM89.586 14.9672C89.7288 15.2527 89.8205 15.6326 89.8205 16.14H91.8205C91.8205 15.3941 91.6855 14.6939 91.3749 14.0728L89.586 14.9672ZM89.8205 16.14V20.62H91.8205V16.14H89.8205ZM89.8205 20.62C89.8205 20.7611 89.7859 20.8011 89.7706 20.8184L91.2703 22.1416C91.6551 21.7056 91.8205 21.1722 91.8205 20.62H89.8205ZM89.7679 20.8215C89.6561 20.9493 89.512 21.0709 89.326 21.1825L90.355 22.8975C90.7023 22.6891 91.0115 22.4374 91.273 22.1385L89.7679 20.8215ZM89.326 21.1825C88.6784 21.5711 87.6649 21.82 86.1805 21.82V23.82C87.8427 23.82 89.2692 23.5489 90.355 22.8975L89.326 21.1825ZM86.1805 21.82C85.5354 21.82 84.973 21.759 84.487 21.646L84.034 23.594C84.6946 23.7476 85.4122 23.82 86.1805 23.82V21.82ZM84.4921 21.6472C84.024 21.5357 83.646 21.3755 83.3426 21.1797L82.2583 22.8603C82.7816 23.1979 83.377 23.4376 84.0288 23.5928L84.4921 21.6472ZM83.3552 21.188C83.0865 21.0088 82.8849 20.7883 82.7373 20.5192L80.9837 21.4808C81.2894 22.0384 81.7144 22.4978 82.2458 22.8521L83.3552 21.188ZM82.7491 20.5414C82.6208 20.2927 82.5405 19.975 82.5405 19.56H80.5405C80.5405 20.2383 80.6735 20.8806 80.9718 21.4586L82.7491 20.5414ZM82.5405 19.56C82.5405 18.8472 82.7443 18.4407 83.0304 18.1824L81.6905 16.6976C80.8834 17.426 80.5405 18.4328 80.5405 19.56H82.5405ZM83.0304 18.1824C83.3535 17.8908 83.9575 17.6241 85.0046 17.5146L84.7964 15.5254C83.5501 15.6559 82.4607 16.0025 81.6905 16.6976L83.0304 18.1824ZM85.0067 17.5143L87.6267 17.2343L87.4142 15.2457L84.7942 15.5257L85.0067 17.5143ZM88.5205 16.24V16.1H86.5205V16.24H88.5205ZM88.5205 16.1C88.5205 15.7543 88.4415 15.3951 88.235 15.0695C88.0279 14.743 87.7356 14.5179 87.4195 14.372L86.5814 16.188C86.5986 16.1959 86.598 16.198 86.5878 16.1895C86.5767 16.1802 86.5607 16.1639 86.546 16.1405C86.5312 16.1173 86.5238 16.0969 86.5208 16.0853C86.518 16.0747 86.5205 16.0779 86.5205 16.1H88.5205ZM87.4618 14.3928C86.9187 14.1104 86.2426 14.02 85.5405 14.02V16.02C86.1183 16.02 86.4155 16.103 86.5391 16.1672L87.4618 14.3928ZM85.5405 14.02C84.9631 14.02 84.3969 14.0808 83.8435 14.2038L84.2774 16.1562C84.684 16.0658 85.1045 16.02 85.5405 16.02V14.02ZM83.8435 14.2038C83.3165 14.3209 82.8266 14.4704 82.3781 14.656L83.1428 16.504C83.4676 16.3696 83.8444 16.2524 84.2774 16.1562L83.8435 14.2038ZM83.3297 14.7578C83.3272 14.7561 83.2798 14.7226 83.2149 14.5928L81.426 15.4872C81.6012 15.8374 81.847 16.1639 82.1913 16.4022L83.3297 14.7578ZM83.2242 14.6119C83.1643 14.4854 83.1405 14.371 83.1405 14.26H81.1405C81.1405 14.6823 81.2367 15.088 81.4167 15.4681L83.2242 14.6119ZM83.1405 14.26C83.1405 14.0605 83.1861 14.0337 83.1613 14.0647L81.5996 12.8153C81.2548 13.2463 81.1405 13.7662 81.1405 14.26H83.1405ZM83.1566 14.0706C83.1958 14.0224 83.3011 13.9263 83.5501 13.821L82.7708 11.979C82.3265 12.167 81.9118 12.431 81.6044 12.8094L83.1566 14.0706ZM83.5151 13.835C83.812 13.7224 84.1858 13.6311 84.6476 13.5719L84.3933 11.5881C83.8152 11.6622 83.2823 11.7843 82.8058 11.965L83.5151 13.835ZM84.6445 13.5723C85.1427 13.51 85.6009 13.48 86.0205 13.48V11.48C85.5067 11.48 84.9649 11.5167 84.3964 11.5877L84.6445 13.5723ZM96.2994 22.48L96.5867 23.4378L97.2994 23.224V22.48H96.2994ZM95.6594 22.6L95.5243 21.6091L95.518 21.6101L95.6594 22.6ZM93.9794 22.6L93.8056 23.5848L93.815 23.5864L93.9794 22.6ZM93.3994 22.36L93.9994 21.56L93.3994 22.36ZM93.0194 21.88L92.083 22.2311L92.0967 22.2676L92.1132 22.3029L93.0194 21.88ZM93.0594 14.28L92.1756 13.8121L92.1701 13.8224L92.1649 13.8328L93.0594 14.28ZM93.5594 13.68L94.19 14.4561L93.5594 13.68ZM94.3394 13.22L94.7381 14.1371L94.7471 14.1332L94.756 14.1291L94.3394 13.22ZM95.3594 12.84L95.6435 13.7988L95.3594 12.84ZM96.4794 12.6L96.616 13.5906L96.6327 13.5883L96.6493 13.5855L96.4794 12.6ZM99.1594 12.88L98.5979 13.7075L98.6082 13.7145L98.6186 13.7212L99.1594 12.88ZM99.6394 14.64L100.595 14.9341L100.598 14.9244L100.601 14.9147L99.6394 14.64ZM99.4394 15.12V16.12H100.033L100.317 15.5989L99.4394 15.12ZM98.5794 15.16L98.6699 16.1559L98.5794 15.16ZM97.7194 15.28L97.5323 14.2977H97.5323L97.7194 15.28ZM96.9194 15.46L97.1363 16.4362L97.1552 16.432L97.1739 16.4271L96.9194 15.46ZM96.2994 15.66L95.8803 14.752L95.2994 15.0202V15.66H96.2994ZM96.012 21.5222C95.9581 21.5384 95.8101 21.5702 95.5243 21.6092L95.7945 23.5908C96.0953 23.5498 96.374 23.5016 96.5867 23.4378L96.012 21.5222ZM95.518 21.6101C95.2885 21.6428 95.0426 21.66 94.7794 21.66V23.66C95.1294 23.66 95.4702 23.6372 95.8008 23.5899L95.518 21.6101ZM94.7794 21.66C94.5303 21.66 94.3197 21.6429 94.1438 21.6136L93.815 23.5864C94.119 23.6371 94.4418 23.66 94.7794 23.66V21.66ZM94.1532 21.6152C94.0577 21.5984 94.0161 21.5725 93.9994 21.56L92.7994 23.16C93.1027 23.3875 93.4477 23.5216 93.8056 23.5848L94.1532 21.6152ZM93.9994 21.56C93.9841 21.5485 93.9567 21.5239 93.9256 21.4571L92.1132 22.3029C92.2687 22.6361 92.4947 22.9315 92.7994 23.16L93.9994 21.56ZM93.9557 21.5289C93.9325 21.467 93.8994 21.3239 93.8994 21.06H91.8994C91.8994 21.4627 91.9463 21.8663 92.083 22.2311L93.9557 21.5289ZM93.8994 21.06V15.06H91.8994V21.06H93.8994ZM93.8994 15.06C93.8994 14.8656 93.9335 14.7678 93.9538 14.7272L92.1649 13.8328C91.9719 14.2189 91.8994 14.641 91.8994 15.06H93.8994ZM93.9432 14.7479C93.9959 14.6483 94.0733 14.5509 94.19 14.4561L92.9288 12.9039C92.6188 13.1558 92.3628 13.4584 92.1756 13.8121L93.9432 14.7479ZM94.19 14.4561C94.3195 14.3509 94.4975 14.2417 94.7381 14.1371L93.9407 12.3029C93.568 12.465 93.2259 12.6625 92.9288 12.9039L94.19 14.4561ZM94.756 14.1291C95.0303 14.0033 95.3258 13.8929 95.6435 13.7988L95.0753 11.8812C94.673 12.0004 94.2884 12.1433 93.9227 12.3109L94.756 14.1291ZM95.6435 13.7988C95.9533 13.707 96.2773 13.6373 96.616 13.5906L96.3427 11.6094C95.9082 11.6693 95.4854 11.7597 95.0753 11.8812L95.6435 13.7988ZM96.6493 13.5855C96.9807 13.5283 97.3105 13.5 97.6394 13.5V11.5C97.1949 11.5 96.7514 11.5383 96.3095 11.6145L96.6493 13.5855ZM97.6394 13.5C98.1596 13.5 98.4462 13.6046 98.5979 13.7075L99.7209 12.0525C99.1259 11.6488 98.3991 11.5 97.6394 11.5V13.5ZM98.6186 13.7212C98.6473 13.7396 98.6602 13.755 98.6732 13.7829C98.6905 13.8199 98.7194 13.9081 98.7194 14.08H100.719C100.719 13.2811 100.436 12.5116 99.7001 12.0388L98.6186 13.7212ZM98.7194 14.08C98.7194 14.1701 98.7067 14.2644 98.6779 14.3653L100.601 14.9147C100.679 14.6423 100.719 14.3632 100.719 14.08H98.7194ZM98.6836 14.3459C98.6483 14.4606 98.6068 14.5581 98.5615 14.6411L100.317 15.5989C100.432 15.3886 100.524 15.1661 100.595 14.9341L98.6836 14.3459ZM99.4394 14.12C99.1276 14.12 98.8107 14.1348 98.4888 14.1641L98.6699 16.1559C98.9347 16.1318 99.1911 16.12 99.4394 16.12V14.12ZM98.4888 14.1641C98.1642 14.1936 97.8453 14.238 97.5323 14.2977L97.9065 16.2623C98.1535 16.2153 98.4079 16.1797 98.6699 16.1559L98.4888 14.1641ZM97.5323 14.2977C97.2316 14.3549 96.9423 14.4199 96.6649 14.4929L97.1739 16.4271C97.4031 16.3668 97.6472 16.3117 97.9065 16.2623L97.5323 14.2977ZM96.7024 14.4838C96.4116 14.5484 96.1338 14.635 95.8803 14.752L96.7184 16.568C96.8116 16.525 96.9471 16.4782 97.1363 16.4362L96.7024 14.4838ZM95.2994 15.66V22.48H97.2994V15.66H95.2994ZM104.842 19.9L104.276 20.724L104.287 20.732L104.299 20.7396L104.842 19.9ZM106.402 20.08L106.526 21.0723L106.556 21.0685L106.586 21.0629L106.402 20.08ZM106.962 19.94L107.736 19.3068L107.3 18.7734L106.646 18.9913L106.962 19.94ZM107.262 20.44L106.343 20.8339L106.36 20.8749L106.382 20.9141L107.262 20.44ZM106.822 22.32L106.184 21.5496L106.178 21.5551L106.171 21.5607L106.822 22.32ZM102.102 22L101.454 22.7616L101.462 22.7682L102.102 22ZM101.162 10.84L100.899 9.87524L100.162 10.0762V10.84H101.162ZM101.782 10.72L101.93 11.7089L101.95 11.706L101.969 11.7023L101.782 10.72ZM104.022 10.96L103.467 11.792L103.487 11.8052L103.508 11.8175L104.022 10.96ZM104.522 13.54H103.522V14.54H104.522V13.54ZM107.142 13.54L108.02 13.0611L107.736 12.54H107.142V13.54ZM107.362 14.1L106.403 14.3822L106.413 14.4171L106.426 14.4511L107.362 14.1ZM104.522 16.14V15.14H103.522V16.14H104.522ZM103.522 19.16C103.522 19.7131 103.703 20.3306 104.276 20.724L105.409 19.076C105.432 19.0922 105.456 19.1138 105.478 19.1402C105.499 19.1663 105.512 19.1906 105.52 19.2081C105.534 19.2407 105.522 19.2347 105.522 19.16H103.522ZM104.299 20.7396C104.748 21.03 105.277 21.12 105.782 21.12V19.12C105.488 19.12 105.39 19.0634 105.385 19.0604L104.299 20.7396ZM105.782 21.12C106.026 21.12 106.275 21.1037 106.526 21.0723L106.278 19.0877C106.103 19.1096 105.938 19.12 105.782 19.12V21.12ZM106.586 21.0629C106.832 21.0167 107.065 20.9598 107.278 20.8887L106.646 18.9913C106.539 19.0269 106.398 19.0633 106.218 19.0971L106.586 21.0629ZM106.188 20.5732C106.245 20.6423 106.297 20.7273 106.343 20.8339L108.181 20.0461C108.067 19.7794 107.919 19.531 107.736 19.3068L106.188 20.5732ZM106.382 20.9141C106.377 20.9059 106.402 20.946 106.402 21.08H108.402C108.402 20.7074 108.334 20.3208 108.143 19.9659L106.382 20.9141ZM106.402 21.08C106.402 21.292 106.339 21.4217 106.184 21.5496L107.46 23.0904C108.078 22.5783 108.402 21.8814 108.402 21.08H106.402ZM106.171 21.5607C106.086 21.6334 105.739 21.8 104.822 21.8V23.8C105.825 23.8 106.811 23.6466 107.473 23.0793L106.171 21.5607ZM104.822 21.8C103.788 21.8 103.141 21.5644 102.742 21.2318L101.462 22.7682C102.343 23.5022 103.509 23.8 104.822 23.8V21.8ZM102.75 21.2385C102.434 20.9692 102.162 20.4446 102.162 19.4H100.162C100.162 20.7554 100.517 21.9641 101.454 22.7615L102.75 21.2385ZM102.162 19.4V10.84H100.162V19.4H102.162ZM101.425 11.8048C101.516 11.78 101.678 11.7468 101.93 11.7089L101.634 9.73106C101.353 9.77317 101.102 9.81998 100.899 9.87524L101.425 11.8048ZM101.969 11.7023C102.183 11.6616 102.413 11.64 102.662 11.64V9.64C102.297 9.64 101.941 9.67173 101.595 9.73766L101.969 11.7023ZM102.662 11.64C103.148 11.64 103.377 11.7318 103.467 11.792L104.577 10.1279C104.027 9.76157 103.349 9.64 102.662 9.64V11.64ZM103.508 11.8175C103.448 11.7816 103.444 11.7437 103.464 11.794C103.488 11.8578 103.522 12.0003 103.522 12.26H105.522C105.522 11.4976 105.339 10.5843 104.537 10.1025L103.508 11.8175ZM103.522 12.26V13.54H105.522V12.26H103.522ZM104.522 14.54H107.142V12.54H104.522V14.54ZM106.264 14.0189C106.299 14.0833 106.349 14.1981 106.403 14.3822L108.321 13.8178C108.242 13.5485 108.145 13.2901 108.02 13.0611L106.264 14.0189ZM106.426 14.4511C106.457 14.5348 106.482 14.6532 106.482 14.82H108.482C108.482 14.4535 108.427 14.0918 108.298 13.7489L106.426 14.4511ZM106.482 14.82C106.482 14.9814 106.463 15.0772 106.448 15.1257C106.434 15.1696 106.429 15.1592 106.455 15.1329L107.869 16.5471C108.351 16.0655 108.482 15.4103 108.482 14.82H106.482ZM106.455 15.1329C106.456 15.1314 106.459 15.1289 106.463 15.1266C106.466 15.1244 106.467 15.1245 106.463 15.1259C106.456 15.1287 106.42 15.14 106.342 15.14V17.14C106.89 17.14 107.441 16.9753 107.869 16.5471L106.455 15.1329ZM106.342 15.14H104.522V17.14H106.342V15.14ZM103.522 16.14V19.16H105.522V16.14H103.522Z" fill="white"/>
<defs>
<clipPath id="clip0_340_1436">
<rect width="15.7857" height="15.7857" fill="white" transform="translate(9.10715 9.10718)"/>
</clipPath>
</defs>
</svg>
