<svg width="80" height="18" viewBox="0 0 80 18" fill="none" xmlns="http://www.w3.org/2000/svg">
<path d="M18 9C18 13.9706 13.9706 18 9 18C4.02944 18 0 13.9706 0 9C0 4.02944 4.02944 0 9 0C13.9706 0 18 4.02944 18 9Z" fill="#007C98"/>
<g clip-path="url(#clip0_1113_2092)">
<path d="M10.25 10.1667V10.25C11.3372 10.4028 12.234 10.7188 12.9404 11.1979C13.6468 11.6771 14 12.2222 14 12.8333C14 13.0139 13.9089 13.1701 13.7266 13.3021C13.5443 13.434 13.3229 13.5 13.0625 13.5C12.8021 13.5 12.5807 13.434 12.3984 13.3021C12.2161 13.1701 12.125 13.0139 12.125 12.8333C12.125 12.5903 11.985 12.3663 11.7051 12.1615C11.4251 11.9566 11.0459 11.7951 10.5674 11.6771C10.0889 11.559 9.56641 11.5 9 11.5C8.43359 11.5 7.91113 11.559 7.43262 11.6771C6.9541 11.7951 6.57487 11.9566 6.29492 12.1615C6.01497 12.3663 5.875 12.5903 5.875 12.8333C5.875 13.0139 5.78385 13.1701 5.60156 13.3021C5.41927 13.434 5.19792 13.5 4.9375 13.5C4.67708 13.5 4.45573 13.434 4.27344 13.3021C4.09115 13.1701 4 13.0139 4 12.8333C4 12.2153 4.35319 11.6684 5.05957 11.1927C5.76595 10.717 6.66276 10.4028 7.75 10.25V10.1667C7.75 9.98611 7.81185 9.82986 7.93555 9.69792C8.05924 9.56597 8.20573 9.5 8.375 9.5V8.16667C8.375 7.98611 8.43685 7.82986 8.56055 7.69792C8.68424 7.56597 8.83073 7.5 9 7.5C9.34505 7.5 9.63965 7.36979 9.88379 7.10938C10.1279 6.84896 10.25 6.53472 10.25 6.16667C10.25 5.79861 10.1279 5.48438 9.88379 5.22396C9.63965 4.96354 9.34505 4.83333 9 4.83333C8.65495 4.83333 8.36035 4.96354 8.11621 5.22396C7.87207 5.48438 7.75 5.79861 7.75 6.16667C7.75 6.34722 7.68978 6.50347 7.56934 6.63542C7.44889 6.76736 7.30241 6.83333 7.12988 6.83333C6.95736 6.83333 6.80924 6.76736 6.68555 6.63542C6.56185 6.50347 6.5 6.34722 6.5 6.16667C6.5 5.43056 6.74414 4.80208 7.23242 4.28125C7.7207 3.76042 8.3099 3.5 9 3.5C9.6901 3.5 10.2793 3.76042 10.7676 4.28125C11.2559 4.80208 11.5 5.43056 11.5 6.16667C11.5 6.77778 11.3242 7.32292 10.9727 7.80208C10.6211 8.28125 10.1719 8.59722 9.625 8.75V9.5C9.80078 9.5 9.94889 9.56597 10.0693 9.69792C10.1898 9.82986 10.25 9.98611 10.25 10.1667Z" fill="#FFC835"/>
</g>
<path d="M26.551 3.81652C27.2187 3.81652 27.822 3.90438 28.3609 4.08009C28.9114 4.24409 29.3741 4.46081 29.749 4.73024C29.9833 4.89424 30.1649 5.07581 30.2937 5.27495C30.4343 5.47409 30.5046 5.73181 30.5046 6.04809V12.1981C30.5046 12.8189 30.3874 13.3519 30.1531 13.7971C29.9189 14.2539 29.5967 14.6288 29.1867 14.9217C28.7884 15.2262 28.314 15.4488 27.7634 15.5894C27.2246 15.7299 26.6447 15.8002 26.0239 15.8002C24.9579 15.8002 24.1203 15.6538 23.5111 15.3609C22.902 15.0798 22.5974 14.6171 22.5974 13.9728C22.5974 13.7034 22.6501 13.4632 22.7556 13.2524C22.8727 13.0532 23.0016 12.9009 23.1421 12.7955C23.4819 12.9829 23.8626 13.1411 24.2843 13.2699C24.7177 13.3988 25.1629 13.4632 25.6197 13.4632C26.2523 13.4632 26.756 13.3578 27.1309 13.1469C27.5057 12.9361 27.6931 12.5964 27.6931 12.1278V11.8467C27.2129 12.0575 26.6271 12.1629 25.936 12.1629C25.4089 12.1629 24.9051 12.0868 24.4249 11.9345C23.9563 11.7705 23.5404 11.5245 23.1773 11.1965C22.8259 10.8568 22.5389 10.4234 22.3163 9.89623C22.1054 9.36909 22 8.74238 22 8.01609C22 7.30152 22.1113 6.68066 22.3339 6.15352C22.5681 5.62638 22.8844 5.19295 23.2827 4.85324C23.6927 4.50181 24.173 4.24409 24.7236 4.08009C25.2859 3.90438 25.895 3.81652 26.551 3.81652ZM27.6404 6.36438C27.5584 6.31752 27.4354 6.27066 27.2714 6.22381C27.1191 6.17695 26.9259 6.15352 26.6916 6.15352C26.1176 6.15352 25.6841 6.31752 25.3913 6.64552C25.1101 6.96181 24.9696 7.41866 24.9696 8.01609C24.9696 8.69552 25.1101 9.18752 25.3913 9.49209C25.6841 9.78495 26.0531 9.93138 26.4983 9.93138C26.9786 9.93138 27.3593 9.82009 27.6404 9.59752V6.36438Z" fill="#606060"/>
<path d="M41.1947 8.34995C41.1947 9.07623 41.0834 9.72638 40.8609 10.3004C40.6383 10.8627 40.322 11.3371 39.912 11.7237C39.5137 12.1102 39.0334 12.4031 38.4711 12.6022C37.9089 12.8014 37.2821 12.9009 36.591 12.9009C35.8999 12.9009 35.2731 12.7955 34.7109 12.5847C34.1486 12.3738 33.6624 12.0751 33.2524 11.6885C32.8541 11.2902 32.5437 10.8099 32.3211 10.2477C32.0986 9.68538 31.9873 9.0528 31.9873 8.34995C31.9873 7.6588 32.0986 7.03209 32.3211 6.46981C32.5437 5.90752 32.8541 5.43309 33.2524 5.04652C33.6624 4.64824 34.1486 4.34366 34.7109 4.13281C35.2731 3.92195 35.8999 3.81652 36.591 3.81652C37.2821 3.81652 37.9089 3.92781 38.4711 4.15038C39.0334 4.36124 39.5137 4.66581 39.912 5.06409C40.322 5.45066 40.6383 5.92509 40.8609 6.48738C41.0834 7.04966 41.1947 7.67052 41.1947 8.34995ZM35.0447 8.34995C35.0447 9.06452 35.1794 9.61509 35.4489 10.0017C35.73 10.3765 36.1166 10.5639 36.6086 10.5639C37.1006 10.5639 37.4754 10.3707 37.7331 9.98409C38.0026 9.59752 38.1373 9.0528 38.1373 8.34995C38.1373 7.64709 38.0026 7.10823 37.7331 6.73338C37.4637 6.34681 37.083 6.15352 36.591 6.15352C36.099 6.15352 35.7183 6.34681 35.4489 6.73338C35.1794 7.10823 35.0447 7.64709 35.0447 8.34995Z" fill="#606060"/>
<path d="M46.7462 3.81652C47.2265 3.81652 47.695 3.88681 48.1519 4.02738C48.6205 4.15624 49.0246 4.35538 49.3643 4.62481C49.7158 4.39052 50.1082 4.19724 50.5416 4.04495C50.9868 3.89266 51.5198 3.81652 52.1406 3.81652C52.5858 3.81652 53.0192 3.87509 53.4409 3.99224C53.8743 4.10938 54.255 4.29681 54.583 4.55452C54.9228 4.80052 55.1922 5.13438 55.3913 5.55609C55.5905 5.96609 55.69 6.46981 55.69 7.06723V12.6022C55.5729 12.6374 55.3855 12.6725 55.1278 12.7077C54.8818 12.7428 54.624 12.7604 54.3546 12.7604C54.0969 12.7604 53.8626 12.7428 53.6518 12.7077C53.4526 12.6725 53.2828 12.6022 53.1422 12.4968C53.0016 12.3914 52.8903 12.2508 52.8083 12.0751C52.738 11.8877 52.7029 11.6475 52.7029 11.3547V7.15509C52.7029 6.80366 52.6033 6.55181 52.4042 6.39952C52.205 6.23552 51.9356 6.15352 51.5959 6.15352C51.4319 6.15352 51.2562 6.19452 51.0688 6.27652C50.8813 6.34681 50.7408 6.42295 50.647 6.50495C50.6588 6.55181 50.6646 6.59866 50.6646 6.64552C50.6646 6.68066 50.6646 6.71581 50.6646 6.75095V12.6022C50.5358 12.6374 50.3425 12.6725 50.0848 12.7077C49.8388 12.7428 49.5869 12.7604 49.3292 12.7604C49.0715 12.7604 48.8372 12.7428 48.6263 12.7077C48.4272 12.6725 48.2573 12.6022 48.1168 12.4968C47.9762 12.3914 47.8649 12.2508 47.7829 12.0751C47.7126 11.8877 47.6775 11.6475 47.6775 11.3547V7.15509C47.6775 6.80366 47.5662 6.55181 47.3436 6.39952C47.1328 6.23552 46.875 6.15352 46.5705 6.15352C46.3596 6.15352 46.178 6.18866 46.0258 6.25895C45.8735 6.31752 45.7446 6.37609 45.6392 6.43466V12.6022C45.522 12.6374 45.3346 12.6725 45.0769 12.7077C44.8309 12.7428 44.5732 12.7604 44.3038 12.7604C44.046 12.7604 43.8118 12.7428 43.6009 12.7077C43.4018 12.6725 43.2319 12.6022 43.0913 12.4968C42.9508 12.3914 42.8395 12.2508 42.7575 12.0751C42.6872 11.8877 42.652 11.6475 42.652 11.3547V6.04809C42.652 5.73181 42.7165 5.47995 42.8453 5.29252C42.9859 5.10509 43.1733 4.92938 43.4076 4.76538C43.8059 4.48424 44.2979 4.25581 44.8836 4.08009C45.481 3.90438 46.1019 3.81652 46.7462 3.81652Z" fill="#606060"/>
<path d="M61.1671 10.7221C61.3662 10.7221 61.583 10.7045 61.8172 10.6694C62.0632 10.6225 62.2448 10.5639 62.362 10.4937V9.08795L61.0968 9.19338C60.7688 9.2168 60.4994 9.28709 60.2885 9.40423C60.0777 9.52138 59.9722 9.69709 59.9722 9.93138C59.9722 10.1657 60.0601 10.3589 60.2358 10.5112C60.4232 10.6518 60.7337 10.7221 61.1671 10.7221ZM61.0265 3.81652C61.6591 3.81652 62.2331 3.88095 62.7485 4.00981C63.2757 4.13866 63.7208 4.33781 64.084 4.60724C64.4588 4.86495 64.7458 5.19881 64.945 5.60881C65.1441 6.00709 65.2437 6.48152 65.2437 7.03209V10.9681C65.2437 11.2727 65.1558 11.5245 64.9801 11.7237C64.8161 11.9111 64.617 12.0751 64.3827 12.2157C63.6212 12.6725 62.5494 12.9009 61.1671 12.9009C60.5462 12.9009 59.984 12.8424 59.4802 12.7252C58.9882 12.6081 58.5607 12.4324 58.1975 12.1981C57.8461 11.9638 57.5708 11.6651 57.3717 11.3019C57.1842 10.9388 57.0905 10.5171 57.0905 10.0368C57.0905 9.22852 57.3307 8.60766 57.811 8.17423C58.2912 7.74081 59.0351 7.47138 60.0425 7.36595L62.3444 7.11995V6.99695C62.3444 6.65723 62.1921 6.41709 61.8875 6.27652C61.5947 6.12424 61.1671 6.04809 60.6048 6.04809C60.1597 6.04809 59.7262 6.09495 59.3045 6.18866C58.8828 6.28238 58.5021 6.39952 58.1624 6.54009C58.0101 6.43466 57.8812 6.27652 57.7758 6.06566C57.6704 5.84309 57.6177 5.61466 57.6177 5.38038C57.6177 5.07581 57.688 4.83566 57.8285 4.65995C57.9808 4.47252 58.2092 4.31438 58.5138 4.18552C58.8535 4.05666 59.2518 3.96295 59.7087 3.90438C60.1772 3.84581 60.6165 3.81652 61.0265 3.81652Z" fill="#606060"/>
<path d="M70.0573 12.6022C69.9401 12.6374 69.7527 12.6725 69.495 12.7077C69.249 12.7428 68.9913 12.7604 68.7219 12.7604C68.4641 12.7604 68.2299 12.7428 68.019 12.7077C67.8199 12.6725 67.65 12.6022 67.5094 12.4968C67.3689 12.3914 67.2576 12.2508 67.1756 12.0751C67.1053 11.8877 67.0701 11.6475 67.0701 11.3547V6.08323C67.0701 5.81381 67.117 5.58538 67.2107 5.39795C67.3161 5.19881 67.4626 5.02309 67.65 4.87081C67.8374 4.71852 68.0658 4.58381 68.3353 4.46666C68.6164 4.33781 68.9151 4.22652 69.2314 4.13281C69.5477 4.03909 69.8757 3.96881 70.2154 3.92195C70.5551 3.86338 70.8948 3.83409 71.2346 3.83409C71.7968 3.83409 72.242 3.94538 72.57 4.16795C72.898 4.37881 73.062 4.73024 73.062 5.22224C73.062 5.38624 73.0386 5.55024 72.9917 5.71424C72.9448 5.86652 72.8863 6.00709 72.816 6.13595C72.57 6.13595 72.3181 6.14766 72.0604 6.17109C71.8027 6.19452 71.5508 6.22966 71.3048 6.27652C71.0589 6.32338 70.8246 6.37609 70.602 6.43466C70.3911 6.48152 70.2096 6.54009 70.0573 6.61038V12.6022Z" fill="#606060"/>
<path d="M77.2815 9.68538C77.2815 9.98995 77.3752 10.2067 77.5626 10.3355C77.7617 10.4644 78.037 10.5288 78.3885 10.5288C78.5642 10.5288 78.7457 10.5171 78.9332 10.4937C79.1206 10.4585 79.2846 10.4175 79.4252 10.3707C79.5306 10.4995 79.6185 10.6459 79.6887 10.8099C79.7707 10.9622 79.8117 11.1497 79.8117 11.3722C79.8117 11.8174 79.6419 12.1805 79.3022 12.4617C78.9742 12.7428 78.3885 12.8834 77.545 12.8834C76.5142 12.8834 75.7176 12.6491 75.1553 12.1805C74.6048 11.7119 74.3295 10.9505 74.3295 9.89623V2.37567C74.4583 2.34052 74.6399 2.30538 74.8742 2.27024C75.1202 2.22338 75.3779 2.19995 75.6473 2.19995C76.1628 2.19995 76.561 2.29367 76.8422 2.48109C77.135 2.65681 77.2815 3.03752 77.2815 3.62324V4.74781H79.5833C79.6536 4.87666 79.718 5.04066 79.7766 5.23981C79.8469 5.42724 79.882 5.63809 79.882 5.87238C79.882 6.28238 79.7883 6.58109 79.6009 6.76852C79.4252 6.94423 79.185 7.03209 78.8805 7.03209H77.2815V9.68538Z" fill="#606060"/>
<defs>
<clipPath id="clip0_1113_2092">
<rect width="10" height="10" fill="white" transform="translate(4 3.5)"/>
</clipPath>
</defs>
</svg>
