<svg width="132" height="99" viewBox="0 0 132 99" fill="none" xmlns="http://www.w3.org/2000/svg">
<g clip-path="url(#clip0_1230_2095)">
<path d="M74.507 42V42.525C82.009 43.4875 88.197 45.4781 93.071 48.4969C97.945 51.5156 100.382 54.95 100.382 58.8C100.382 59.9375 99.7531 60.9219 98.4953 61.7531C97.2375 62.5844 95.7101 63 93.9133 63C92.1164 63 90.5891 62.5844 89.3312 61.7531C88.0734 60.9219 87.4445 59.9375 87.4445 58.8C87.4445 57.2687 86.4787 55.8578 84.5471 54.5672C82.6154 53.2766 79.9987 52.2594 76.697 51.5156C73.3952 50.7719 69.7902 50.4 65.882 50.4C61.9738 50.4 58.3688 50.7719 55.0671 51.5156C51.7653 52.2594 49.1486 53.2766 47.217 54.5672C45.2853 55.8578 44.3195 57.2687 44.3195 58.8C44.3195 59.9375 43.6906 60.9219 42.4328 61.7531C41.175 62.5844 39.6476 63 37.8508 63C36.0539 63 34.5266 62.5844 33.2687 61.7531C32.0109 60.9219 31.382 59.9375 31.382 58.8C31.382 54.9062 33.819 51.4609 38.6931 48.4641C43.5671 45.4672 49.7551 43.4875 57.257 42.525V42C57.257 40.8625 57.6838 39.8781 58.5373 39.0469C59.3908 38.2156 60.4016 37.8 61.5695 37.8V29.4C61.5695 28.2625 61.9963 27.2781 62.8498 26.4469C63.7033 25.6156 64.7141 25.2 65.882 25.2C68.2629 25.2 70.2956 24.3797 71.9802 22.7391C73.6647 21.0984 74.507 19.1187 74.507 16.8C74.507 14.4812 73.6647 12.5016 71.9802 10.8609C70.2956 9.22031 68.2629 8.4 65.882 8.4C63.5012 8.4 61.4684 9.22031 59.7839 10.8609C58.0993 12.5016 57.257 14.4812 57.257 16.8C57.257 17.9375 56.8415 18.9219 56.0104 19.7531C55.1794 20.5844 54.1686 21 52.9782 21C51.7878 21 50.7658 20.5844 49.9123 19.7531C49.0588 18.9219 48.632 17.9375 48.632 16.8C48.632 12.1625 50.3166 8.20312 53.6857 4.92187C57.0549 1.64062 61.1203 0 65.882 0C70.6437 0 74.7092 1.64062 78.0783 4.92187C81.4474 8.20312 83.132 12.1625 83.132 16.8C83.132 20.65 81.9191 24.0844 79.4933 27.1031C77.0676 30.1219 73.968 32.1125 70.1945 33.075V37.8C71.4074 37.8 72.4294 38.2156 73.2604 39.0469C74.0915 39.8781 74.507 40.8625 74.507 42Z" fill="#FFC835"/>
</g>
<path d="M10.36 71.68C11.88 71.68 13.2533 71.88 14.48 72.28C15.7333 72.6533 16.7867 73.1467 17.64 73.76C18.1733 74.1333 18.5867 74.5467 18.88 75C19.2 75.4533 19.36 76.04 19.36 76.76V90.76C19.36 92.1733 19.0933 93.3867 18.56 94.4C18.0267 95.44 17.2933 96.2933 16.36 96.96C15.4533 97.6533 14.3733 98.16 13.12 98.48C11.8933 98.8 10.5733 98.96 9.16 98.96C6.73333 98.96 4.82667 98.6267 3.44 97.96C2.05333 97.32 1.36 96.2667 1.36 94.8C1.36 94.1867 1.48 93.64 1.72 93.16C1.98667 92.7067 2.28 92.36 2.6 92.12C3.37333 92.5467 4.24 92.9067 5.2 93.2C6.18667 93.4933 7.2 93.64 8.24 93.64C9.68 93.64 10.8267 93.4 11.68 92.92C12.5333 92.44 12.96 91.6667 12.96 90.6V89.96C11.8667 90.44 10.5333 90.68 8.96 90.68C7.76 90.68 6.61333 90.5067 5.52 90.16C4.45333 89.7867 3.50667 89.2267 2.68 88.48C1.88 87.7067 1.22667 86.72 0.72 85.52C0.24 84.32 0 82.8933 0 81.24C0 79.6133 0.253333 78.2 0.76 77C1.29333 75.8 2.01333 74.8133 2.92 74.04C3.85333 73.24 4.94667 72.6533 6.2 72.28C7.48 71.88 8.86667 71.68 10.36 71.68ZM12.84 77.48C12.6533 77.3733 12.3733 77.2667 12 77.16C11.6533 77.0533 11.2133 77 10.68 77C9.37333 77 8.38667 77.3733 7.72 78.12C7.08 78.84 6.76 79.88 6.76 81.24C6.76 82.7867 7.08 83.9067 7.72 84.6C8.38667 85.2667 9.22667 85.6 10.24 85.6C11.3333 85.6 12.2 85.3467 12.84 84.84V77.48Z" fill="white"/>
<path d="M43.6953 82C43.6953 83.6533 43.442 85.1333 42.9353 86.44C42.4286 87.72 41.7086 88.8 40.7753 89.68C39.8686 90.56 38.7753 91.2267 37.4953 91.68C36.2153 92.1333 34.7886 92.36 33.2153 92.36C31.642 92.36 30.2153 92.12 28.9353 91.64C27.6553 91.16 26.5486 90.48 25.6153 89.6C24.7086 88.6933 24.002 87.6 23.4953 86.32C22.9886 85.04 22.7353 83.6 22.7353 82C22.7353 80.4267 22.9886 79 23.4953 77.72C24.002 76.44 24.7086 75.36 25.6153 74.48C26.5486 73.5733 27.6553 72.88 28.9353 72.4C30.2153 71.92 31.642 71.68 33.2153 71.68C34.7886 71.68 36.2153 71.9333 37.4953 72.44C38.7753 72.92 39.8686 73.6133 40.7753 74.52C41.7086 75.4 42.4286 76.48 42.9353 77.76C43.442 79.04 43.6953 80.4533 43.6953 82ZM29.6953 82C29.6953 83.6267 30.002 84.88 30.6153 85.76C31.2553 86.6133 32.1353 87.04 33.2553 87.04C34.3753 87.04 35.2286 86.6 35.8153 85.72C36.4286 84.84 36.7353 83.6 36.7353 82C36.7353 80.4 36.4286 79.1733 35.8153 78.32C35.202 77.44 34.3353 77 33.2153 77C32.0953 77 31.2286 77.44 30.6153 78.32C30.002 79.1733 29.6953 80.4 29.6953 82Z" fill="white"/>
<path d="M56.3328 71.68C57.4261 71.68 58.4928 71.84 59.5328 72.16C60.5995 72.4533 61.5195 72.9067 62.2928 73.52C63.0928 72.9867 63.9861 72.5467 64.9728 72.2C65.9861 71.8533 67.1995 71.68 68.6128 71.68C69.6262 71.68 70.6128 71.8133 71.5728 72.08C72.5595 72.3467 73.4261 72.7733 74.1728 73.36C74.9461 73.92 75.5595 74.68 76.0128 75.64C76.4662 76.5733 76.6928 77.72 76.6928 79.08V91.68C76.4262 91.76 75.9995 91.84 75.4128 91.92C74.8528 92 74.2662 92.04 73.6528 92.04C73.0661 92.04 72.5328 92 72.0528 91.92C71.5995 91.84 71.2128 91.68 70.8928 91.44C70.5728 91.2 70.3195 90.88 70.1328 90.48C69.9728 90.0533 69.8928 89.5067 69.8928 88.84V79.28C69.8928 78.48 69.6661 77.9067 69.2128 77.56C68.7595 77.1867 68.1462 77 67.3728 77C66.9995 77 66.5995 77.0933 66.1728 77.28C65.7461 77.44 65.4261 77.6133 65.2128 77.8C65.2395 77.9067 65.2528 78.0133 65.2528 78.12C65.2528 78.2 65.2528 78.28 65.2528 78.36V91.68C64.9595 91.76 64.5195 91.84 63.9328 91.92C63.3728 92 62.7995 92.04 62.2128 92.04C61.6261 92.04 61.0928 92 60.6128 91.92C60.1595 91.84 59.7728 91.68 59.4528 91.44C59.1328 91.2 58.8795 90.88 58.6928 90.48C58.5328 90.0533 58.4528 89.5067 58.4528 88.84V79.28C58.4528 78.48 58.1995 77.9067 57.6928 77.56C57.2128 77.1867 56.6261 77 55.9328 77C55.4528 77 55.0395 77.08 54.6928 77.24C54.3461 77.3733 54.0528 77.5067 53.8128 77.64V91.68C53.5461 91.76 53.1195 91.84 52.5328 91.92C51.9728 92 51.3861 92.04 50.7728 92.04C50.1861 92.04 49.6528 92 49.1728 91.92C48.7195 91.84 48.3328 91.68 48.0128 91.44C47.6928 91.2 47.4395 90.88 47.2528 90.48C47.0928 90.0533 47.0128 89.5067 47.0128 88.84V76.76C47.0128 76.04 47.1595 75.4667 47.4528 75.04C47.7728 74.6133 48.1995 74.2133 48.7328 73.84C49.6395 73.2 50.7595 72.68 52.0928 72.28C53.4528 71.88 54.8661 71.68 56.3328 71.68Z" fill="white"/>
<path d="M89.1609 87.4C89.6143 87.4 90.1076 87.36 90.6409 87.28C91.2009 87.1733 91.6143 87.04 91.8809 86.88V83.68L89.0009 83.92C88.2543 83.9733 87.6409 84.1333 87.1609 84.4C86.6809 84.6667 86.4409 85.0667 86.4409 85.6C86.4409 86.1333 86.6409 86.5733 87.0409 86.92C87.4676 87.24 88.1743 87.4 89.1609 87.4ZM88.8409 71.68C90.2809 71.68 91.5876 71.8267 92.7609 72.12C93.9609 72.4133 94.9743 72.8667 95.8009 73.48C96.6543 74.0667 97.3076 74.8267 97.7609 75.76C98.2143 76.6667 98.4409 77.7467 98.4409 79V87.96C98.4409 88.6533 98.2409 89.2267 97.8409 89.68C97.4676 90.1067 97.0143 90.48 96.4809 90.8C94.7476 91.84 92.3076 92.36 89.1609 92.36C87.7476 92.36 86.4676 92.2267 85.3209 91.96C84.2009 91.6933 83.2276 91.2933 82.4009 90.76C81.6009 90.2267 80.9743 89.5467 80.5209 88.72C80.0943 87.8933 79.8809 86.9333 79.8809 85.84C79.8809 84 80.4276 82.5867 81.5209 81.6C82.6143 80.6133 84.3076 80 86.6009 79.76L91.8409 79.2V78.92C91.8409 78.1467 91.4943 77.6 90.8009 77.28C90.1343 76.9333 89.1609 76.76 87.8809 76.76C86.8676 76.76 85.8809 76.8667 84.9209 77.08C83.9609 77.2933 83.0943 77.56 82.3209 77.88C81.9743 77.64 81.6809 77.28 81.4409 76.8C81.2009 76.2933 81.0809 75.7733 81.0809 75.24C81.0809 74.5467 81.2409 74 81.5609 73.6C81.9076 73.1733 82.4276 72.8133 83.1209 72.52C83.8943 72.2267 84.8009 72.0133 85.8409 71.88C86.9076 71.7467 87.9076 71.68 88.8409 71.68Z" fill="white"/>
<path d="M109.399 91.68C109.132 91.76 108.705 91.84 108.119 91.92C107.559 92 106.972 92.04 106.359 92.04C105.772 92.04 105.239 92 104.759 91.92C104.305 91.84 103.919 91.68 103.599 91.44C103.279 91.2 103.025 90.88 102.839 90.48C102.679 90.0533 102.599 89.5067 102.599 88.84V76.84C102.599 76.2267 102.705 75.7067 102.919 75.28C103.159 74.8267 103.492 74.4267 103.919 74.08C104.345 73.7333 104.865 73.4267 105.479 73.16C106.119 72.8667 106.799 72.6133 107.519 72.4C108.239 72.1867 108.985 72.0267 109.759 71.92C110.532 71.7867 111.305 71.72 112.079 71.72C113.359 71.72 114.372 71.9733 115.119 72.48C115.865 72.96 116.239 73.76 116.239 74.88C116.239 75.2533 116.185 75.6267 116.079 76C115.972 76.3467 115.839 76.6667 115.679 76.96C115.119 76.96 114.545 76.9867 113.959 77.04C113.372 77.0933 112.799 77.1733 112.239 77.28C111.679 77.3867 111.145 77.5067 110.639 77.64C110.159 77.7467 109.745 77.88 109.399 78.04V91.68Z" fill="white"/>
<path d="M125.844 85.04C125.844 85.7333 126.057 86.2267 126.484 86.52C126.937 86.8133 127.564 86.96 128.364 86.96C128.764 86.96 129.177 86.9333 129.604 86.88C130.031 86.8 130.404 86.7067 130.724 86.6C130.964 86.8933 131.164 87.2267 131.324 87.6C131.511 87.9467 131.604 88.3733 131.604 88.88C131.604 89.8933 131.217 90.72 130.444 91.36C129.697 92 128.364 92.32 126.444 92.32C124.097 92.32 122.284 91.7867 121.004 90.72C119.751 89.6533 119.124 87.92 119.124 85.52V68.4C119.417 68.32 119.831 68.24 120.364 68.16C120.924 68.0533 121.511 68 122.124 68C123.297 68 124.204 68.2133 124.844 68.64C125.511 69.04 125.844 69.9067 125.844 71.24V73.8H131.084C131.244 74.0933 131.391 74.4667 131.524 74.92C131.684 75.3467 131.764 75.8267 131.764 76.36C131.764 77.2933 131.551 77.9733 131.124 78.4C130.724 78.8 130.177 79 129.484 79H125.844V85.04Z" fill="white"/>
<defs>
<clipPath id="clip0_1230_2095">
<rect width="69" height="63" fill="white" transform="translate(31.382)"/>
</clipPath>
</defs>
</svg>
